<svg width="20" height="10" viewBox="0 0 10 20" fill="none" transform="rotate(90)" xmlns="http://www.w3.org/2000/svg">
<path d="M4.44698 0.229141C4.44675 0.229376 4.44648 0.22957 4.44624 0.229843L0.383746 4.31203C0.079411 4.61785 0.0805435 5.1125 0.386403 5.41691C0.692222 5.72129 1.18687 5.72012 1.49124 5.4143L4.21874 2.67352L4.21874 19.2187C4.21874 19.6502 4.56851 20 4.99999 20C5.43148 20 5.78124 19.6502 5.78124 19.2187L5.78124 2.67355L8.50874 5.41426C8.81311 5.72008 9.30776 5.72125 9.61358 5.41687C9.91948 5.11246 9.92053 4.61777 9.61623 4.31199L5.55374 0.229805C5.55351 0.22957 5.55323 0.229374 5.553 0.229101C5.24761 -0.0768759 4.75136 -0.0758993 4.44698 0.229141Z" fill="#F8F8F8"/>
</svg>
