<svg width="1556" height="870" viewBox="0 0 1556 870" fill="none" xmlns="http://www.w3.org/2000/svg">
<path d="M2.6435 0C1.18329 0 0 1.18476 0 2.6468C0 4.10884 1.18329 5.29361 2.6435 5.29361C4.10372 5.29361 5.28699 4.10884 5.28699 2.6468C5.31217 1.18476 4.10372 0 2.6435 0Z" fill="url(#paint0_linear_173_59)"/>
<path d="M175.04 0C173.579 0 172.396 1.18476 172.396 2.6468C172.396 4.10884 173.579 5.29361 175.04 5.29361C176.5 5.29361 177.683 4.10884 177.683 2.6468C177.708 1.18476 176.525 0 175.04 0Z" fill="url(#paint1_linear_173_59)"/>
<path d="M346.583 0C345.122 0 343.939 1.18476 343.939 2.6468C343.939 4.10884 345.122 5.29361 346.583 5.29361C348.043 5.29361 349.226 4.10884 349.226 2.6468C349.226 1.18476 348.043 0 346.583 0Z" fill="url(#paint2_linear_173_59)"/>
<path d="M519.832 0C518.372 0 517.189 1.18476 517.189 2.6468C517.189 4.10884 518.372 5.29361 519.832 5.29361C521.293 5.29361 522.476 4.10884 522.476 2.6468C522.476 1.18476 521.293 0 519.832 0Z" fill="url(#paint3_linear_173_59)"/>
<path d="M692.229 0C690.768 0 689.585 1.18476 689.585 2.6468C689.585 4.10884 690.768 5.29361 692.229 5.29361C693.689 5.29361 694.872 4.10884 694.872 2.6468C694.872 1.18476 693.664 0 692.229 0Z" fill="url(#paint4_linear_173_59)"/>
<path d="M863.771 0C862.311 0 861.128 1.18476 861.128 2.6468C861.128 4.10884 862.311 5.29361 863.771 5.29361C865.232 5.29361 866.415 4.10884 866.415 2.6468C866.415 1.18476 865.232 0 863.771 0Z" fill="url(#paint5_linear_173_59)"/>
<path d="M1036.17 0C1034.71 0 1033.52 1.18476 1033.52 2.6468C1033.52 4.10884 1034.71 5.29361 1036.17 5.29361C1037.63 5.29361 1038.81 4.10884 1038.81 2.6468C1038.81 1.18476 1037.63 0 1036.17 0Z" fill="url(#paint6_linear_173_59)"/>
<path d="M1209.42 0C1207.96 0 1206.77 1.18476 1206.77 2.6468C1206.77 4.10884 1207.96 5.29361 1209.42 5.29361C1210.88 5.29361 1212.06 4.10884 1212.06 2.6468C1212.06 1.18476 1210.88 0 1209.42 0Z" fill="url(#paint7_linear_173_59)"/>
<path d="M1380.96 0C1379.5 0 1378.32 1.18476 1378.32 2.6468C1378.32 4.10884 1379.5 5.29361 1380.96 5.29361C1382.42 5.29361 1383.6 4.10884 1383.6 2.6468C1383.6 1.18476 1382.42 0 1380.96 0Z" fill="url(#paint8_linear_173_59)"/>
<path d="M1553.36 5.29361C1554.82 5.29361 1556 4.10884 1556 2.6468C1556 1.18476 1554.82 0 1553.36 0C1551.9 0 1550.71 1.18476 1550.71 2.6468C1550.69 4.10884 1551.9 5.29361 1553.36 5.29361Z" fill="url(#paint9_linear_173_59)"/>
<path d="M2.6435 171.745C1.18329 171.745 0 172.93 0 174.392C0 175.854 1.18329 177.039 2.6435 177.039C4.10372 177.039 5.28699 175.854 5.28699 174.392C5.31217 172.93 4.10372 171.745 2.6435 171.745Z" fill="url(#paint10_linear_173_59)"/>
<path d="M175.04 171.745C173.579 171.745 172.396 172.93 172.396 174.392C172.396 175.854 173.579 177.039 175.04 177.039C176.5 177.039 177.683 175.854 177.683 174.392C177.708 172.93 176.525 171.745 175.04 171.745Z" fill="url(#paint11_linear_173_59)"/>
<path d="M346.583 171.745C345.122 171.745 343.939 172.93 343.939 174.392C343.939 175.854 345.122 177.039 346.583 177.039C348.043 177.039 349.226 175.854 349.226 174.392C349.226 172.93 348.043 171.745 346.583 171.745Z" fill="url(#paint12_linear_173_59)"/>
<path d="M519.832 171.745C518.372 171.745 517.189 172.93 517.189 174.392C517.189 175.854 518.372 177.039 519.832 177.039C521.293 177.039 522.476 175.854 522.476 174.392C522.476 172.93 521.293 171.745 519.832 171.745Z" fill="url(#paint13_linear_173_59)"/>
<path d="M692.229 171.745C690.768 171.745 689.585 172.93 689.585 174.392C689.585 175.854 690.768 177.039 692.229 177.039C693.689 177.039 694.872 175.854 694.872 174.392C694.872 172.93 693.664 171.745 692.229 171.745Z" fill="url(#paint14_linear_173_59)"/>
<path d="M863.771 171.745C862.311 171.745 861.128 172.93 861.128 174.392C861.128 175.854 862.311 177.039 863.771 177.039C865.232 177.039 866.415 175.854 866.415 174.392C866.415 172.93 865.232 171.745 863.771 171.745Z" fill="url(#paint15_linear_173_59)"/>
<path d="M1036.17 171.745C1034.71 171.745 1033.52 172.93 1033.52 174.392C1033.52 175.854 1034.71 177.039 1036.17 177.039C1037.63 177.039 1038.81 175.854 1038.81 174.392C1038.81 172.93 1037.63 171.745 1036.17 171.745Z" fill="url(#paint16_linear_173_59)"/>
<path d="M1209.42 171.745C1207.96 171.745 1206.77 172.93 1206.77 174.392C1206.77 175.854 1207.96 177.039 1209.42 177.039C1210.88 177.039 1212.06 175.854 1212.06 174.392C1212.06 172.93 1210.88 171.745 1209.42 171.745Z" fill="url(#paint17_linear_173_59)"/>
<path d="M1380.96 171.745C1379.5 171.745 1378.32 172.93 1378.32 174.392C1378.32 175.854 1379.5 177.039 1380.96 177.039C1382.42 177.039 1383.6 175.854 1383.6 174.392C1383.6 172.93 1382.42 171.745 1380.96 171.745Z" fill="url(#paint18_linear_173_59)"/>
<path d="M1553.36 171.745C1551.9 171.745 1550.71 172.93 1550.71 174.392C1550.71 175.854 1551.9 177.039 1553.36 177.039C1554.82 177.039 1556 175.854 1556 174.392C1556 172.93 1554.82 171.745 1553.36 171.745Z" fill="url(#paint19_linear_173_59)"/>
<path d="M2.6435 344.345C1.18329 344.345 0 345.529 0 346.991C0 348.453 1.18329 349.638 2.6435 349.638C4.10372 349.638 5.28699 348.453 5.28699 346.991C5.31217 345.529 4.10372 344.345 2.6435 344.345Z" fill="url(#paint20_linear_173_59)"/>
<path d="M175.04 344.345C173.579 344.345 172.396 345.529 172.396 346.991C172.396 348.453 173.579 349.638 175.04 349.638C176.5 349.638 177.683 348.453 177.683 346.991C177.708 345.529 176.525 344.345 175.04 344.345Z" fill="url(#paint21_linear_173_59)"/>
<path d="M1209.42 344.345C1207.96 344.345 1206.77 345.529 1206.77 346.991C1206.77 348.453 1207.96 349.638 1209.42 349.638C1210.88 349.638 1212.06 348.453 1212.06 346.991C1212.06 345.529 1210.88 344.345 1209.42 344.345Z" fill="url(#paint22_linear_173_59)"/>
<path d="M1380.96 344.345C1379.5 344.345 1378.32 345.529 1378.32 346.991C1378.32 348.453 1379.5 349.638 1380.96 349.638C1382.42 349.638 1383.6 348.453 1383.6 346.991C1383.6 345.529 1382.42 344.345 1380.96 344.345Z" fill="url(#paint23_linear_173_59)"/>
<path d="M1553.36 344.345C1551.9 344.345 1550.71 345.529 1550.71 346.991C1550.71 348.453 1551.9 349.638 1553.36 349.638C1554.82 349.638 1556 348.453 1556 346.991C1556 345.529 1554.82 344.345 1553.36 344.345Z" fill="url(#paint24_linear_173_59)"/>
<path d="M2.6435 516.944C1.18329 516.944 0 518.129 0 519.591C0 521.053 1.18329 522.238 2.6435 522.238C4.10372 522.238 5.28699 521.053 5.28699 519.591C5.31217 518.129 4.10372 516.944 2.6435 516.944Z" fill="url(#paint25_linear_173_59)"/>
<path d="M175.04 516.944C173.579 516.944 172.396 518.129 172.396 519.591C172.396 521.053 173.579 522.238 175.04 522.238C176.5 522.238 177.683 521.053 177.683 519.591C177.708 518.129 176.525 516.944 175.04 516.944Z" fill="url(#paint26_linear_173_59)"/>
<path d="M1209.42 516.944C1207.96 516.944 1206.77 518.129 1206.77 519.591C1206.77 521.053 1207.96 522.238 1209.42 522.238C1210.88 522.238 1212.06 521.053 1212.06 519.591C1212.06 518.129 1210.88 516.944 1209.42 516.944Z" fill="url(#paint27_linear_173_59)"/>
<path d="M1380.96 516.944C1379.5 516.944 1378.32 518.129 1378.32 519.591C1378.32 521.053 1379.5 522.238 1380.96 522.238C1382.42 522.238 1383.6 521.053 1383.6 519.591C1383.6 518.129 1382.42 516.944 1380.96 516.944Z" fill="url(#paint28_linear_173_59)"/>
<path d="M1553.36 516.944C1551.9 516.944 1550.71 518.129 1550.71 519.591C1550.71 521.053 1551.9 522.238 1553.36 522.238C1554.82 522.238 1556 521.053 1556 519.591C1556 518.129 1554.82 516.944 1553.36 516.944Z" fill="url(#paint29_linear_173_59)"/>
<path d="M2.6435 689.544C1.18329 689.544 0 690.728 0 692.19C0 693.652 1.18329 694.837 2.6435 694.837C4.10372 694.837 5.28699 693.652 5.28699 692.19C5.31217 690.728 4.10372 689.544 2.6435 689.544Z" fill="url(#paint30_linear_173_59)"/>
<path d="M175.04 689.544C173.579 689.544 172.396 690.728 172.396 692.19C172.396 693.652 173.579 694.837 175.04 694.837C176.5 694.837 177.683 693.652 177.683 692.19C177.708 690.728 176.525 689.544 175.04 689.544Z" fill="url(#paint31_linear_173_59)"/>
<path d="M346.583 689.544C345.122 689.544 343.939 690.728 343.939 692.19C343.939 693.652 345.122 694.837 346.583 694.837C348.043 694.837 349.226 693.652 349.226 692.19C349.226 690.728 348.043 689.544 346.583 689.544Z" fill="url(#paint32_linear_173_59)"/>
<path d="M519.832 689.544C518.372 689.544 517.189 690.728 517.189 692.19C517.189 693.652 518.372 694.837 519.832 694.837C521.293 694.837 522.476 693.652 522.476 692.19C522.476 690.728 521.293 689.544 519.832 689.544Z" fill="url(#paint33_linear_173_59)"/>
<path d="M692.229 689.544C690.768 689.544 689.585 690.728 689.585 692.19C689.585 693.652 690.768 694.837 692.229 694.837C693.689 694.837 694.872 693.652 694.872 692.19C694.872 690.728 693.664 689.544 692.229 689.544Z" fill="url(#paint34_linear_173_59)"/>
<path d="M863.771 689.544C862.311 689.544 861.128 690.728 861.128 692.19C861.128 693.652 862.311 694.837 863.771 694.837C865.232 694.837 866.415 693.652 866.415 692.19C866.415 690.728 865.232 689.544 863.771 689.544Z" fill="url(#paint35_linear_173_59)"/>
<path d="M1036.17 689.544C1034.71 689.544 1033.52 690.728 1033.52 692.19C1033.52 693.652 1034.71 694.837 1036.17 694.837C1037.63 694.837 1038.81 693.652 1038.81 692.19C1038.81 690.728 1037.63 689.544 1036.17 689.544Z" fill="url(#paint36_linear_173_59)"/>
<path d="M1209.42 689.544C1207.96 689.544 1206.77 690.728 1206.77 692.19C1206.77 693.652 1207.96 694.837 1209.42 694.837C1210.88 694.837 1212.06 693.652 1212.06 692.19C1212.06 690.728 1210.88 689.544 1209.42 689.544Z" fill="url(#paint37_linear_173_59)"/>
<path d="M1380.96 689.544C1379.5 689.544 1378.32 690.728 1378.32 692.19C1378.32 693.652 1379.5 694.837 1380.96 694.837C1382.42 694.837 1383.6 693.652 1383.6 692.19C1383.6 690.728 1382.42 689.544 1380.96 689.544Z" fill="url(#paint38_linear_173_59)"/>
<path d="M1553.36 689.544C1551.9 689.544 1550.71 690.728 1550.71 692.19C1550.71 693.652 1551.9 694.837 1553.36 694.837C1554.82 694.837 1556 693.652 1556 692.19C1556 690.728 1554.82 689.544 1553.36 689.544Z" fill="url(#paint39_linear_173_59)"/>
<path d="M2.6437 864.706C1.18337 864.706 0 865.891 0 867.353C0 868.815 1.18337 870 2.6437 870C4.10402 870 5.28738 868.815 5.28738 867.353C5.28738 865.891 4.10402 864.706 2.6437 864.706Z" fill="url(#paint40_linear_173_59)"/>
<path d="M175.04 864.706C173.58 864.706 172.396 865.891 172.396 867.353C172.396 868.815 173.58 870 175.04 870C176.5 870 177.684 868.815 177.684 867.353C177.684 865.891 176.525 864.706 175.04 864.706Z" fill="url(#paint41_linear_173_59)"/>
<path d="M346.583 864.706C345.122 864.706 343.939 865.891 343.939 867.353C343.939 868.815 345.122 870 346.583 870C348.043 870 349.226 868.815 349.226 867.353C349.226 865.891 348.043 864.706 346.583 864.706Z" fill="url(#paint42_linear_173_59)"/>
<path d="M519.832 864.706C518.372 864.706 517.189 865.891 517.189 867.353C517.189 868.815 518.372 870 519.832 870C521.293 870 522.476 868.815 522.476 867.353C522.476 865.891 521.293 864.706 519.832 864.706Z" fill="url(#paint43_linear_173_59)"/>
<path d="M692.229 864.706C690.768 864.706 689.585 865.891 689.585 867.353C689.585 868.815 690.768 870 692.229 870C693.689 870 694.872 868.815 694.872 867.353C694.872 865.891 693.664 864.706 692.229 864.706Z" fill="url(#paint44_linear_173_59)"/>
<path d="M863.771 864.706C862.311 864.706 861.128 865.891 861.128 867.353C861.128 868.815 862.311 870 863.771 870C865.232 870 866.415 868.815 866.415 867.353C866.415 865.891 865.232 864.706 863.771 864.706Z" fill="url(#paint45_linear_173_59)"/>
<path d="M1036.17 864.706C1034.71 864.706 1033.52 865.891 1033.52 867.353C1033.52 868.815 1034.71 870 1036.17 870C1037.63 870 1038.81 868.815 1038.81 867.353C1038.81 865.891 1037.63 864.706 1036.17 864.706Z" fill="url(#paint46_linear_173_59)"/>
<path d="M1209.42 864.706C1207.96 864.706 1206.77 865.891 1206.77 867.353C1206.77 868.815 1207.96 870 1209.42 870C1210.88 870 1212.06 868.815 1212.06 867.353C1212.06 865.891 1210.88 864.706 1209.42 864.706Z" fill="url(#paint47_linear_173_59)"/>
<path d="M1380.96 864.706C1379.5 864.706 1378.32 865.891 1378.32 867.353C1378.32 868.815 1379.5 870 1380.96 870C1382.42 870 1383.6 868.815 1383.6 867.353C1383.6 865.891 1382.42 864.706 1380.96 864.706Z" fill="url(#paint48_linear_173_59)"/>
<path d="M1553.36 864.706C1551.9 864.706 1550.71 865.891 1550.71 867.353C1550.71 868.815 1551.9 870 1553.36 870C1554.82 870 1556 868.815 1556 867.353C1556 865.891 1554.82 864.706 1553.36 864.706Z" fill="url(#paint49_linear_173_59)"/>
<defs>
<linearGradient id="paint0_linear_173_59" x1="1124.72" y1="715.52" x2="-97.0485" y2="-690.154" gradientUnits="userSpaceOnUse">
<stop stop-color="#C4C4C4" stop-opacity="0.5"/>
<stop offset="1" stop-color="#C4C4C4" stop-opacity="0"/>
</linearGradient>
<linearGradient id="paint1_linear_173_59" x1="1124.72" y1="715.52" x2="-97.0485" y2="-690.154" gradientUnits="userSpaceOnUse">
<stop stop-color="#C4C4C4" stop-opacity="0.5"/>
<stop offset="1" stop-color="#C4C4C4" stop-opacity="0"/>
</linearGradient>
<linearGradient id="paint2_linear_173_59" x1="1124.72" y1="715.52" x2="-97.0485" y2="-690.154" gradientUnits="userSpaceOnUse">
<stop stop-color="#C4C4C4" stop-opacity="0.5"/>
<stop offset="1" stop-color="#C4C4C4" stop-opacity="0"/>
</linearGradient>
<linearGradient id="paint3_linear_173_59" x1="1124.72" y1="715.52" x2="-97.0485" y2="-690.154" gradientUnits="userSpaceOnUse">
<stop stop-color="#C4C4C4" stop-opacity="0.5"/>
<stop offset="1" stop-color="#C4C4C4" stop-opacity="0"/>
</linearGradient>
<linearGradient id="paint4_linear_173_59" x1="1124.72" y1="715.52" x2="-97.0485" y2="-690.154" gradientUnits="userSpaceOnUse">
<stop stop-color="#C4C4C4" stop-opacity="0.5"/>
<stop offset="1" stop-color="#C4C4C4" stop-opacity="0"/>
</linearGradient>
<linearGradient id="paint5_linear_173_59" x1="1124.72" y1="715.52" x2="-97.0485" y2="-690.154" gradientUnits="userSpaceOnUse">
<stop stop-color="#C4C4C4" stop-opacity="0.5"/>
<stop offset="1" stop-color="#C4C4C4" stop-opacity="0"/>
</linearGradient>
<linearGradient id="paint6_linear_173_59" x1="1124.72" y1="715.52" x2="-97.0485" y2="-690.154" gradientUnits="userSpaceOnUse">
<stop stop-color="#C4C4C4" stop-opacity="0.5"/>
<stop offset="1" stop-color="#C4C4C4" stop-opacity="0"/>
</linearGradient>
<linearGradient id="paint7_linear_173_59" x1="1124.72" y1="715.52" x2="-97.0485" y2="-690.154" gradientUnits="userSpaceOnUse">
<stop stop-color="#C4C4C4" stop-opacity="0.5"/>
<stop offset="1" stop-color="#C4C4C4" stop-opacity="0"/>
</linearGradient>
<linearGradient id="paint8_linear_173_59" x1="1124.72" y1="715.52" x2="-97.0485" y2="-690.154" gradientUnits="userSpaceOnUse">
<stop stop-color="#C4C4C4" stop-opacity="0.5"/>
<stop offset="1" stop-color="#C4C4C4" stop-opacity="0"/>
</linearGradient>
<linearGradient id="paint9_linear_173_59" x1="1124.72" y1="715.52" x2="-97.0485" y2="-690.154" gradientUnits="userSpaceOnUse">
<stop stop-color="#C4C4C4" stop-opacity="0.5"/>
<stop offset="1" stop-color="#C4C4C4" stop-opacity="0"/>
</linearGradient>
<linearGradient id="paint10_linear_173_59" x1="1124.72" y1="715.52" x2="-97.0485" y2="-690.154" gradientUnits="userSpaceOnUse">
<stop stop-color="#C4C4C4" stop-opacity="0.5"/>
<stop offset="1" stop-color="#C4C4C4" stop-opacity="0"/>
</linearGradient>
<linearGradient id="paint11_linear_173_59" x1="1124.72" y1="715.52" x2="-97.0485" y2="-690.154" gradientUnits="userSpaceOnUse">
<stop stop-color="#C4C4C4" stop-opacity="0.5"/>
<stop offset="1" stop-color="#C4C4C4" stop-opacity="0"/>
</linearGradient>
<linearGradient id="paint12_linear_173_59" x1="1124.72" y1="715.52" x2="-97.0485" y2="-690.154" gradientUnits="userSpaceOnUse">
<stop stop-color="#C4C4C4" stop-opacity="0.5"/>
<stop offset="1" stop-color="#C4C4C4" stop-opacity="0"/>
</linearGradient>
<linearGradient id="paint13_linear_173_59" x1="1124.72" y1="715.52" x2="-97.0485" y2="-690.154" gradientUnits="userSpaceOnUse">
<stop stop-color="#C4C4C4" stop-opacity="0.5"/>
<stop offset="1" stop-color="#C4C4C4" stop-opacity="0"/>
</linearGradient>
<linearGradient id="paint14_linear_173_59" x1="1124.72" y1="715.52" x2="-97.0485" y2="-690.154" gradientUnits="userSpaceOnUse">
<stop stop-color="#C4C4C4" stop-opacity="0.5"/>
<stop offset="1" stop-color="#C4C4C4" stop-opacity="0"/>
</linearGradient>
<linearGradient id="paint15_linear_173_59" x1="1124.72" y1="715.52" x2="-97.0485" y2="-690.154" gradientUnits="userSpaceOnUse">
<stop stop-color="#C4C4C4" stop-opacity="0.5"/>
<stop offset="1" stop-color="#C4C4C4" stop-opacity="0"/>
</linearGradient>
<linearGradient id="paint16_linear_173_59" x1="1124.72" y1="715.52" x2="-97.0485" y2="-690.154" gradientUnits="userSpaceOnUse">
<stop stop-color="#C4C4C4" stop-opacity="0.5"/>
<stop offset="1" stop-color="#C4C4C4" stop-opacity="0"/>
</linearGradient>
<linearGradient id="paint17_linear_173_59" x1="1124.72" y1="715.52" x2="-97.0485" y2="-690.154" gradientUnits="userSpaceOnUse">
<stop stop-color="#C4C4C4" stop-opacity="0.5"/>
<stop offset="1" stop-color="#C4C4C4" stop-opacity="0"/>
</linearGradient>
<linearGradient id="paint18_linear_173_59" x1="1124.72" y1="715.52" x2="-97.0485" y2="-690.154" gradientUnits="userSpaceOnUse">
<stop stop-color="#C4C4C4" stop-opacity="0.5"/>
<stop offset="1" stop-color="#C4C4C4" stop-opacity="0"/>
</linearGradient>
<linearGradient id="paint19_linear_173_59" x1="1124.72" y1="715.52" x2="-97.0485" y2="-690.154" gradientUnits="userSpaceOnUse">
<stop stop-color="#C4C4C4" stop-opacity="0.5"/>
<stop offset="1" stop-color="#C4C4C4" stop-opacity="0"/>
</linearGradient>
<linearGradient id="paint20_linear_173_59" x1="1124.72" y1="715.52" x2="-97.0485" y2="-690.154" gradientUnits="userSpaceOnUse">
<stop stop-color="#C4C4C4" stop-opacity="0.5"/>
<stop offset="1" stop-color="#C4C4C4" stop-opacity="0"/>
</linearGradient>
<linearGradient id="paint21_linear_173_59" x1="1124.72" y1="715.52" x2="-97.0485" y2="-690.154" gradientUnits="userSpaceOnUse">
<stop stop-color="#C4C4C4" stop-opacity="0.5"/>
<stop offset="1" stop-color="#C4C4C4" stop-opacity="0"/>
</linearGradient>
<linearGradient id="paint22_linear_173_59" x1="1124.72" y1="715.52" x2="-97.0485" y2="-690.154" gradientUnits="userSpaceOnUse">
<stop stop-color="#C4C4C4" stop-opacity="0.5"/>
<stop offset="1" stop-color="#C4C4C4" stop-opacity="0"/>
</linearGradient>
<linearGradient id="paint23_linear_173_59" x1="1124.72" y1="715.52" x2="-97.0485" y2="-690.154" gradientUnits="userSpaceOnUse">
<stop stop-color="#C4C4C4" stop-opacity="0.5"/>
<stop offset="1" stop-color="#C4C4C4" stop-opacity="0"/>
</linearGradient>
<linearGradient id="paint24_linear_173_59" x1="1124.72" y1="715.52" x2="-97.0485" y2="-690.154" gradientUnits="userSpaceOnUse">
<stop stop-color="#C4C4C4" stop-opacity="0.5"/>
<stop offset="1" stop-color="#C4C4C4" stop-opacity="0"/>
</linearGradient>
<linearGradient id="paint25_linear_173_59" x1="1124.72" y1="715.52" x2="-97.0485" y2="-690.154" gradientUnits="userSpaceOnUse">
<stop stop-color="#C4C4C4" stop-opacity="0.5"/>
<stop offset="1" stop-color="#C4C4C4" stop-opacity="0"/>
</linearGradient>
<linearGradient id="paint26_linear_173_59" x1="1124.72" y1="715.52" x2="-97.0485" y2="-690.154" gradientUnits="userSpaceOnUse">
<stop stop-color="#C4C4C4" stop-opacity="0.5"/>
<stop offset="1" stop-color="#C4C4C4" stop-opacity="0"/>
</linearGradient>
<linearGradient id="paint27_linear_173_59" x1="1124.72" y1="715.52" x2="-97.0485" y2="-690.154" gradientUnits="userSpaceOnUse">
<stop stop-color="#C4C4C4" stop-opacity="0.5"/>
<stop offset="1" stop-color="#C4C4C4" stop-opacity="0"/>
</linearGradient>
<linearGradient id="paint28_linear_173_59" x1="1124.72" y1="715.52" x2="-97.0485" y2="-690.154" gradientUnits="userSpaceOnUse">
<stop stop-color="#C4C4C4" stop-opacity="0.5"/>
<stop offset="1" stop-color="#C4C4C4" stop-opacity="0"/>
</linearGradient>
<linearGradient id="paint29_linear_173_59" x1="1124.72" y1="715.52" x2="-97.0485" y2="-690.154" gradientUnits="userSpaceOnUse">
<stop stop-color="#C4C4C4" stop-opacity="0.5"/>
<stop offset="1" stop-color="#C4C4C4" stop-opacity="0"/>
</linearGradient>
<linearGradient id="paint30_linear_173_59" x1="1124.72" y1="715.52" x2="-97.0485" y2="-690.154" gradientUnits="userSpaceOnUse">
<stop stop-color="#C4C4C4" stop-opacity="0.5"/>
<stop offset="1" stop-color="#C4C4C4" stop-opacity="0"/>
</linearGradient>
<linearGradient id="paint31_linear_173_59" x1="1124.72" y1="715.52" x2="-97.0485" y2="-690.154" gradientUnits="userSpaceOnUse">
<stop stop-color="#C4C4C4" stop-opacity="0.5"/>
<stop offset="1" stop-color="#C4C4C4" stop-opacity="0"/>
</linearGradient>
<linearGradient id="paint32_linear_173_59" x1="1124.72" y1="715.52" x2="-97.0485" y2="-690.154" gradientUnits="userSpaceOnUse">
<stop stop-color="#C4C4C4" stop-opacity="0.5"/>
<stop offset="1" stop-color="#C4C4C4" stop-opacity="0"/>
</linearGradient>
<linearGradient id="paint33_linear_173_59" x1="1124.72" y1="715.52" x2="-97.0485" y2="-690.154" gradientUnits="userSpaceOnUse">
<stop stop-color="#C4C4C4" stop-opacity="0.5"/>
<stop offset="1" stop-color="#C4C4C4" stop-opacity="0"/>
</linearGradient>
<linearGradient id="paint34_linear_173_59" x1="1124.72" y1="715.52" x2="-97.0485" y2="-690.154" gradientUnits="userSpaceOnUse">
<stop stop-color="#C4C4C4" stop-opacity="0.5"/>
<stop offset="1" stop-color="#C4C4C4" stop-opacity="0"/>
</linearGradient>
<linearGradient id="paint35_linear_173_59" x1="1124.72" y1="715.52" x2="-97.0485" y2="-690.154" gradientUnits="userSpaceOnUse">
<stop stop-color="#C4C4C4" stop-opacity="0.5"/>
<stop offset="1" stop-color="#C4C4C4" stop-opacity="0"/>
</linearGradient>
<linearGradient id="paint36_linear_173_59" x1="1124.72" y1="715.52" x2="-97.0485" y2="-690.154" gradientUnits="userSpaceOnUse">
<stop stop-color="#C4C4C4" stop-opacity="0.5"/>
<stop offset="1" stop-color="#C4C4C4" stop-opacity="0"/>
</linearGradient>
<linearGradient id="paint37_linear_173_59" x1="1124.72" y1="715.52" x2="-97.0485" y2="-690.154" gradientUnits="userSpaceOnUse">
<stop stop-color="#C4C4C4" stop-opacity="0.5"/>
<stop offset="1" stop-color="#C4C4C4" stop-opacity="0"/>
</linearGradient>
<linearGradient id="paint38_linear_173_59" x1="1124.72" y1="715.52" x2="-97.0485" y2="-690.154" gradientUnits="userSpaceOnUse">
<stop stop-color="#C4C4C4" stop-opacity="0.5"/>
<stop offset="1" stop-color="#C4C4C4" stop-opacity="0"/>
</linearGradient>
<linearGradient id="paint39_linear_173_59" x1="1124.72" y1="715.52" x2="-97.0485" y2="-690.154" gradientUnits="userSpaceOnUse">
<stop stop-color="#C4C4C4" stop-opacity="0.5"/>
<stop offset="1" stop-color="#C4C4C4" stop-opacity="0"/>
</linearGradient>
<linearGradient id="paint40_linear_173_59" x1="1124.72" y1="715.52" x2="-97.0485" y2="-690.154" gradientUnits="userSpaceOnUse">
<stop stop-color="#C4C4C4" stop-opacity="0.5"/>
<stop offset="1" stop-color="#C4C4C4" stop-opacity="0"/>
</linearGradient>
<linearGradient id="paint41_linear_173_59" x1="1124.72" y1="715.52" x2="-97.0485" y2="-690.154" gradientUnits="userSpaceOnUse">
<stop stop-color="#C4C4C4" stop-opacity="0.5"/>
<stop offset="1" stop-color="#C4C4C4" stop-opacity="0"/>
</linearGradient>
<linearGradient id="paint42_linear_173_59" x1="1124.72" y1="715.52" x2="-97.0485" y2="-690.154" gradientUnits="userSpaceOnUse">
<stop stop-color="#C4C4C4" stop-opacity="0.5"/>
<stop offset="1" stop-color="#C4C4C4" stop-opacity="0"/>
</linearGradient>
<linearGradient id="paint43_linear_173_59" x1="1124.72" y1="715.52" x2="-97.0485" y2="-690.154" gradientUnits="userSpaceOnUse">
<stop stop-color="#C4C4C4" stop-opacity="0.5"/>
<stop offset="1" stop-color="#C4C4C4" stop-opacity="0"/>
</linearGradient>
<linearGradient id="paint44_linear_173_59" x1="1124.72" y1="715.52" x2="-97.0485" y2="-690.154" gradientUnits="userSpaceOnUse">
<stop stop-color="#C4C4C4" stop-opacity="0.5"/>
<stop offset="1" stop-color="#C4C4C4" stop-opacity="0"/>
</linearGradient>
<linearGradient id="paint45_linear_173_59" x1="1124.72" y1="715.52" x2="-97.0485" y2="-690.154" gradientUnits="userSpaceOnUse">
<stop stop-color="#C4C4C4" stop-opacity="0.5"/>
<stop offset="1" stop-color="#C4C4C4" stop-opacity="0"/>
</linearGradient>
<linearGradient id="paint46_linear_173_59" x1="1124.72" y1="715.52" x2="-97.0485" y2="-690.154" gradientUnits="userSpaceOnUse">
<stop stop-color="#C4C4C4" stop-opacity="0.5"/>
<stop offset="1" stop-color="#C4C4C4" stop-opacity="0"/>
</linearGradient>
<linearGradient id="paint47_linear_173_59" x1="1124.72" y1="715.52" x2="-97.0485" y2="-690.154" gradientUnits="userSpaceOnUse">
<stop stop-color="#C4C4C4" stop-opacity="0.5"/>
<stop offset="1" stop-color="#C4C4C4" stop-opacity="0"/>
</linearGradient>
<linearGradient id="paint48_linear_173_59" x1="1124.72" y1="715.52" x2="-97.0485" y2="-690.154" gradientUnits="userSpaceOnUse">
<stop stop-color="#C4C4C4" stop-opacity="0.5"/>
<stop offset="1" stop-color="#C4C4C4" stop-opacity="0"/>
</linearGradient>
<linearGradient id="paint49_linear_173_59" x1="1124.72" y1="715.52" x2="-97.0485" y2="-690.154" gradientUnits="userSpaceOnUse">
<stop stop-color="#C4C4C4" stop-opacity="0.5"/>
<stop offset="1" stop-color="#C4C4C4" stop-opacity="0"/>
</linearGradient>
</defs>
</svg>
