<svg width="373" height="334" viewBox="0 0 373 334" fill="none" xmlns="http://www.w3.org/2000/svg">
<g opacity="0.9">
<path d="M-19.4568 0C-20.3079 0 -21 0.691533 -21 1.53259C-21 2.37364 -20.3079 3.07452 -19.4568 3.07452C-18.6057 3.07452 -17.9136 2.38298 -17.9136 1.53259C-17.9136 0.682188 -18.615 0 -19.4568 0Z" fill="url(#paint0_linear_195_368)"/>
<path d="M26.3346 0.0747568C25.4835 0.0747568 24.7914 0.766289 24.7914 1.60734C24.7914 2.4484 25.4835 3.14927 26.3346 3.14927C27.1857 3.14927 27.8778 2.45774 27.8778 1.60734C27.8778 0.756944 27.1763 0.0747568 26.3346 0.0747568Z" fill="url(#paint1_linear_195_368)"/>
<path d="M72.1259 0.0747568C71.2748 0.0747568 70.5827 0.766289 70.5827 1.60734C70.5827 2.4484 71.2748 3.14927 72.1259 3.14927C72.977 3.14927 73.6692 2.45774 73.6692 1.60734C73.6692 0.756944 72.977 0.0747568 72.1259 0.0747568Z" fill="url(#paint2_linear_195_368)"/>
<path d="M117.917 0.0747568C117.066 0.0747568 116.374 0.766289 116.374 1.60734C116.374 2.4484 117.066 3.14927 117.917 3.14927C118.768 3.14927 119.461 2.45774 119.461 1.60734C119.461 0.756944 118.768 0.0747568 117.917 0.0747568Z" fill="url(#paint3_linear_195_368)"/>
<path d="M163.709 0C162.858 0 162.165 0.691533 162.165 1.53259C162.165 2.37364 162.858 3.07452 163.709 3.07452C164.56 3.07452 165.252 2.38298 165.252 1.53259C165.252 0.682188 164.56 0 163.709 0Z" fill="url(#paint4_linear_195_368)"/>
<path d="M209.5 0C208.649 0 207.957 0.691533 207.957 1.53259C207.957 2.37364 208.649 3.07452 209.5 3.07452C210.351 3.07452 211.043 2.38298 211.043 1.53259C211.043 0.682188 210.351 0 209.5 0Z" fill="url(#paint5_linear_195_368)"/>
<path d="M346.874 0C346.023 0 345.331 0.691533 345.331 1.53259C345.331 2.37364 346.023 3.07452 346.874 3.07452C347.725 3.07452 348.417 2.38298 348.417 1.53259C348.417 0.682188 347.725 0 346.874 0Z" fill="url(#paint6_linear_195_368)"/>
<path d="M392.665 0C391.814 0 391.122 0.691533 391.122 1.53259C391.122 2.37364 391.814 3.07452 392.665 3.07452C393.517 3.07452 394.209 2.38298 394.209 1.53259C394.209 0.682188 393.517 0 392.665 0Z" fill="url(#paint7_linear_195_368)"/>
<path d="M438.466 0C437.615 0 436.923 0.691533 436.923 1.53259C436.923 2.37364 437.615 3.07452 438.466 3.07452C439.317 3.07452 440.009 2.38298 440.009 1.53259C440.009 0.682188 439.308 0 438.466 0Z" fill="url(#paint8_linear_195_368)"/>
<path d="M301.083 0C300.232 0 299.539 0.691533 299.539 1.53259C299.539 2.37364 300.232 3.07452 301.083 3.07452C301.934 3.07452 302.626 2.38298 302.626 1.53259C302.626 0.682188 301.934 0 301.083 0Z" fill="url(#paint9_linear_195_368)"/>
<path d="M255.291 0C254.44 0 253.748 0.691533 253.748 1.53259C253.748 2.37364 254.44 3.07452 255.291 3.07452C256.142 3.07452 256.835 2.38298 256.835 1.53259C256.835 0.682188 256.142 0 255.291 0Z" fill="url(#paint10_linear_195_368)"/>
<path d="M-19.4568 45.9309C-20.3079 45.9309 -21 46.6224 -21 47.4728C-21 48.3232 -20.3079 49.0147 -19.4568 49.0147C-18.6057 49.0147 -17.9136 48.3232 -17.9136 47.4728C-17.9136 46.6224 -18.615 45.9309 -19.4568 45.9309Z" fill="url(#paint11_linear_195_368)"/>
<path d="M26.3346 46.015C25.4835 46.015 24.7914 46.7065 24.7914 47.5475C24.7914 48.3886 25.4835 49.0895 26.3346 49.0895C27.1857 49.0895 27.8778 48.3979 27.8778 47.5475C27.8778 46.6971 27.1763 46.015 26.3346 46.015Z" fill="url(#paint12_linear_195_368)"/>
<path d="M72.1259 46.015C71.2748 46.015 70.5827 46.7065 70.5827 47.5475C70.5827 48.3886 71.2748 49.0895 72.1259 49.0895C72.977 49.0895 73.6692 48.3979 73.6692 47.5475C73.6692 46.6971 72.977 46.015 72.1259 46.015Z" fill="url(#paint13_linear_195_368)"/>
<path d="M117.917 46.015C117.066 46.015 116.374 46.7065 116.374 47.5475C116.374 48.3886 117.066 49.0895 117.917 49.0895C118.768 49.0895 119.461 48.3979 119.461 47.5475C119.461 46.6971 118.768 46.015 117.917 46.015Z" fill="url(#paint14_linear_195_368)"/>
<path d="M163.709 45.9309C162.858 45.9309 162.165 46.6224 162.165 47.4634C162.165 48.3045 162.858 49.0054 163.709 49.0054C164.56 49.0054 165.252 48.3138 165.252 47.4634C165.252 46.6131 164.56 45.9309 163.709 45.9309Z" fill="url(#paint15_linear_195_368)"/>
<path d="M209.5 45.9309C208.649 45.9309 207.957 46.6224 207.957 47.4634C207.957 48.3045 208.649 49.0054 209.5 49.0054C210.351 49.0054 211.043 48.3138 211.043 47.4634C211.043 46.6131 210.351 45.9309 209.5 45.9309Z" fill="url(#paint16_linear_195_368)"/>
<path d="M346.874 45.9309C346.023 45.9309 345.331 46.6224 345.331 47.4634C345.331 48.3045 346.023 49.0054 346.874 49.0054C347.725 49.0054 348.417 48.3138 348.417 47.4634C348.417 46.6131 347.725 45.9309 346.874 45.9309Z" fill="url(#paint17_linear_195_368)"/>
<path d="M392.665 45.9309C391.814 45.9309 391.122 46.6224 391.122 47.4634C391.122 48.3045 391.814 49.0054 392.665 49.0054C393.517 49.0054 394.209 48.3138 394.209 47.4634C394.209 46.6131 393.517 45.9309 392.665 45.9309Z" fill="url(#paint18_linear_195_368)"/>
<path d="M438.466 45.9309C437.615 45.9309 436.923 46.6224 436.923 47.4634C436.923 48.3045 437.615 49.0054 438.466 49.0054C439.317 49.0054 440.009 48.3138 440.009 47.4634C440.009 46.6131 439.308 45.9309 438.466 45.9309Z" fill="url(#paint19_linear_195_368)"/>
<path d="M301.083 45.9309C300.232 45.9309 299.539 46.6224 299.539 47.4634C299.539 48.3045 300.232 49.0054 301.083 49.0054C301.934 49.0054 302.626 48.3138 302.626 47.4634C302.626 46.6131 301.934 45.9309 301.083 45.9309Z" fill="url(#paint20_linear_195_368)"/>
<path d="M255.291 45.9309C254.44 45.9309 253.748 46.6224 253.748 47.4634C253.748 48.3045 254.44 49.0054 255.291 49.0054C256.142 49.0054 256.835 48.3138 256.835 47.4634C256.835 46.6131 256.142 45.9309 255.291 45.9309Z" fill="url(#paint21_linear_195_368)"/>
<path d="M-19.4568 91.4973C-20.3079 91.4973 -21 92.1888 -21 93.0298C-21 93.8709 -20.3079 94.5718 -19.4568 94.5718C-18.6057 94.5718 -17.9136 93.8802 -17.9136 93.0298C-17.9136 92.1794 -18.615 91.4973 -19.4568 91.4973Z" fill="url(#paint22_linear_195_368)"/>
<path d="M26.3346 91.572C25.4835 91.572 24.7914 92.2635 24.7914 93.1046C24.7914 93.9457 25.4835 94.6465 26.3346 94.6465C27.1857 94.6465 27.8778 93.955 27.8778 93.1046C27.8778 92.2542 27.1763 91.572 26.3346 91.572Z" fill="url(#paint23_linear_195_368)"/>
<path d="M72.1259 91.572C71.2748 91.572 70.5827 92.2635 70.5827 93.1046C70.5827 93.9457 71.2748 94.6465 72.1259 94.6465C72.977 94.6465 73.6692 93.955 73.6692 93.1046C73.6692 92.2542 72.977 91.572 72.1259 91.572Z" fill="url(#paint24_linear_195_368)"/>
<path d="M117.917 91.572C117.066 91.572 116.374 92.2635 116.374 93.1046C116.374 93.9457 117.066 94.6465 117.917 94.6465C118.768 94.6465 119.461 93.955 119.461 93.1046C119.461 92.2542 118.768 91.572 117.917 91.572Z" fill="url(#paint25_linear_195_368)"/>
<path d="M163.709 91.4973C162.858 91.4973 162.165 92.1888 162.165 93.0298C162.165 93.8709 162.858 94.5718 163.709 94.5718C164.56 94.5718 165.252 93.8802 165.252 93.0298C165.252 92.1794 164.56 91.4973 163.709 91.4973Z" fill="url(#paint26_linear_195_368)"/>
<path d="M209.5 91.4973C208.649 91.4973 207.957 92.1888 207.957 93.0298C207.957 93.8709 208.649 94.5718 209.5 94.5718C210.351 94.5718 211.043 93.8802 211.043 93.0298C211.043 92.1794 210.351 91.4973 209.5 91.4973Z" fill="url(#paint27_linear_195_368)"/>
<path d="M346.874 91.4973C346.023 91.4973 345.331 92.1888 345.331 93.0298C345.331 93.8709 346.023 94.5718 346.874 94.5718C347.725 94.5718 348.417 93.8802 348.417 93.0298C348.417 92.1794 347.725 91.4973 346.874 91.4973Z" fill="url(#paint28_linear_195_368)"/>
<path d="M392.665 91.4973C391.814 91.4973 391.122 92.1888 391.122 93.0298C391.122 93.8709 391.814 94.5718 392.665 94.5718C393.517 94.5718 394.209 93.8802 394.209 93.0298C394.209 92.1794 393.517 91.4973 392.665 91.4973Z" fill="url(#paint29_linear_195_368)"/>
<path d="M438.466 91.4973C437.615 91.4973 436.923 92.1888 436.923 93.0298C436.923 93.8709 437.615 94.5718 438.466 94.5718C439.317 94.5718 440.009 93.8802 440.009 93.0298C440.009 92.1794 439.308 91.4973 438.466 91.4973Z" fill="url(#paint30_linear_195_368)"/>
<path d="M301.083 91.4973C300.232 91.4973 299.539 92.1888 299.539 93.0298C299.539 93.8709 300.232 94.5718 301.083 94.5718C301.934 94.5718 302.626 93.8802 302.626 93.0298C302.626 92.1794 301.934 91.4973 301.083 91.4973Z" fill="url(#paint31_linear_195_368)"/>
<path d="M255.291 91.4973C254.44 91.4973 253.748 92.1888 253.748 93.0298C253.748 93.8709 254.44 94.5718 255.291 94.5718C256.142 94.5718 256.835 93.8802 256.835 93.0298C256.835 92.1794 256.142 91.4973 255.291 91.4973Z" fill="url(#paint32_linear_195_368)"/>
<path d="M-19.4568 137.381C-20.3079 137.381 -21 138.073 -21 138.914C-21 139.755 -20.3079 140.456 -19.4568 140.456C-18.6057 140.456 -17.9136 139.764 -17.9136 138.914C-17.9136 138.064 -18.615 137.381 -19.4568 137.381Z" fill="url(#paint33_linear_195_368)"/>
<path d="M26.3346 137.456C25.4835 137.456 24.7914 138.148 24.7914 138.989C24.7914 139.83 25.4835 140.531 26.3346 140.531C27.1857 140.531 27.8778 139.839 27.8778 138.989C27.8778 138.138 27.1763 137.456 26.3346 137.456Z" fill="url(#paint34_linear_195_368)"/>
<path d="M72.1259 137.456C71.2748 137.456 70.5827 138.148 70.5827 138.989C70.5827 139.83 71.2748 140.531 72.1259 140.531C72.977 140.531 73.6692 139.839 73.6692 138.989C73.6692 138.138 72.977 137.456 72.1259 137.456Z" fill="url(#paint35_linear_195_368)"/>
<path d="M117.917 137.456C117.066 137.456 116.374 138.148 116.374 138.989C116.374 139.83 117.066 140.531 117.917 140.531C118.768 140.531 119.461 139.839 119.461 138.989C119.461 138.138 118.768 137.456 117.917 137.456Z" fill="url(#paint36_linear_195_368)"/>
<path d="M163.709 137.381C162.858 137.381 162.165 138.073 162.165 138.914C162.165 139.755 162.858 140.456 163.709 140.456C164.56 140.456 165.252 139.764 165.252 138.914C165.252 138.064 164.56 137.381 163.709 137.381Z" fill="url(#paint37_linear_195_368)"/>
<path d="M209.5 137.381C208.649 137.381 207.957 138.073 207.957 138.914C207.957 139.755 208.649 140.456 209.5 140.456C210.351 140.456 211.043 139.764 211.043 138.914C211.043 138.064 210.351 137.381 209.5 137.381Z" fill="url(#paint38_linear_195_368)"/>
<path d="M346.874 137.381C346.023 137.381 345.331 138.073 345.331 138.914C345.331 139.755 346.023 140.456 346.874 140.456C347.725 140.456 348.417 139.764 348.417 138.914C348.417 138.064 347.725 137.381 346.874 137.381Z" fill="url(#paint39_linear_195_368)"/>
<path d="M392.665 137.381C391.814 137.381 391.122 138.073 391.122 138.914C391.122 139.755 391.814 140.456 392.665 140.456C393.517 140.456 394.209 139.764 394.209 138.914C394.209 138.064 393.517 137.381 392.665 137.381Z" fill="url(#paint40_linear_195_368)"/>
<path d="M438.466 137.381C437.615 137.381 436.923 138.073 436.923 138.914C436.923 139.755 437.615 140.456 438.466 140.456C439.317 140.456 440.009 139.764 440.009 138.914C440.009 138.064 439.308 137.381 438.466 137.381Z" fill="url(#paint41_linear_195_368)"/>
<path d="M301.083 137.381C300.232 137.381 299.539 138.073 299.539 138.914C299.539 139.755 300.232 140.456 301.083 140.456C301.934 140.456 302.626 139.764 302.626 138.914C302.626 138.064 301.934 137.381 301.083 137.381Z" fill="url(#paint42_linear_195_368)"/>
<path d="M255.291 137.381C254.44 137.381 253.748 138.073 253.748 138.914C253.748 139.755 254.44 140.456 255.291 140.456C256.142 140.456 256.835 139.764 256.835 138.914C256.835 138.064 256.142 137.381 255.291 137.381Z" fill="url(#paint43_linear_195_368)"/>
<path d="M-19.4568 183.312C-20.3079 183.312 -21 184.004 -21 184.845C-21 185.686 -20.3079 186.387 -19.4568 186.387C-18.6057 186.387 -17.9136 185.695 -17.9136 184.845C-17.9136 183.994 -18.615 183.312 -19.4568 183.312Z" fill="url(#paint44_linear_195_368)"/>
<path d="M26.3346 183.396C25.4835 183.396 24.7914 184.088 24.7914 184.929C24.7914 185.779 25.4835 186.471 26.3346 186.471C27.1857 186.471 27.8778 185.779 27.8778 184.929C27.8684 184.079 27.1763 183.396 26.3346 183.396Z" fill="url(#paint45_linear_195_368)"/>
<path d="M72.1259 183.396C71.2748 183.396 70.5827 184.088 70.5827 184.929C70.5827 185.779 71.2748 186.471 72.1259 186.471C72.977 186.471 73.6692 185.779 73.6692 184.929C73.6598 184.079 72.977 183.396 72.1259 183.396Z" fill="url(#paint46_linear_195_368)"/>
<path d="M117.917 183.396C117.066 183.396 116.374 184.088 116.374 184.929C116.374 185.779 117.066 186.471 117.917 186.471C118.768 186.471 119.461 185.779 119.461 184.929C119.461 184.079 118.768 183.396 117.917 183.396Z" fill="url(#paint47_linear_195_368)"/>
<path d="M163.709 183.312C162.858 183.312 162.165 184.004 162.165 184.845C162.165 185.686 162.858 186.387 163.709 186.387C164.56 186.387 165.252 185.695 165.252 184.845C165.252 183.994 164.56 183.312 163.709 183.312Z" fill="url(#paint48_linear_195_368)"/>
<path d="M209.5 183.312C208.649 183.312 207.957 184.004 207.957 184.845C207.957 185.686 208.649 186.387 209.5 186.387C210.351 186.387 211.043 185.695 211.043 184.845C211.043 183.994 210.351 183.312 209.5 183.312Z" fill="url(#paint49_linear_195_368)"/>
<path d="M346.874 183.312C346.023 183.312 345.331 184.004 345.331 184.845C345.331 185.686 346.023 186.387 346.874 186.387C347.725 186.387 348.417 185.695 348.417 184.845C348.417 183.994 347.725 183.312 346.874 183.312Z" fill="url(#paint50_linear_195_368)"/>
<path d="M392.665 183.312C391.814 183.312 391.122 184.004 391.122 184.845C391.122 185.686 391.814 186.387 392.665 186.387C393.517 186.387 394.209 185.695 394.209 184.845C394.209 183.994 393.517 183.312 392.665 183.312Z" fill="url(#paint51_linear_195_368)"/>
<path d="M438.466 183.312C437.615 183.312 436.923 184.004 436.923 184.845C436.923 185.686 437.615 186.387 438.466 186.387C439.317 186.387 440.009 185.695 440.009 184.845C440.009 183.994 439.308 183.312 438.466 183.312Z" fill="url(#paint52_linear_195_368)"/>
<path d="M301.083 183.312C300.232 183.312 299.539 184.004 299.539 184.845C299.539 185.686 300.232 186.387 301.083 186.387C301.934 186.387 302.626 185.695 302.626 184.845C302.626 183.994 301.934 183.312 301.083 183.312Z" fill="url(#paint53_linear_195_368)"/>
<path d="M255.291 183.312C254.44 183.312 253.748 184.004 253.748 184.845C253.748 185.686 254.44 186.387 255.291 186.387C256.142 186.387 256.835 185.695 256.835 184.845C256.835 183.994 256.142 183.312 255.291 183.312Z" fill="url(#paint54_linear_195_368)"/>
<path d="M-19.4568 228.879C-20.3079 228.879 -21 229.57 -21 230.411C-21 231.252 -20.3079 231.953 -19.4568 231.953C-18.6057 231.953 -17.9136 231.262 -17.9136 230.411C-17.9136 229.561 -18.615 228.879 -19.4568 228.879Z" fill="url(#paint55_linear_195_368)"/>
<path d="M26.3346 228.953C25.4835 228.953 24.7914 229.645 24.7914 230.486C24.7914 231.336 25.4835 232.028 26.3346 232.028C27.1857 232.028 27.8778 231.336 27.8778 230.486C27.8684 229.645 27.1763 228.953 26.3346 228.953Z" fill="url(#paint56_linear_195_368)"/>
<path d="M72.1259 228.953C71.2748 228.953 70.5827 229.645 70.5827 230.486C70.5827 231.336 71.2748 232.028 72.1259 232.028C72.977 232.028 73.6692 231.336 73.6692 230.486C73.6598 229.645 72.977 228.953 72.1259 228.953Z" fill="url(#paint57_linear_195_368)"/>
<path d="M117.917 228.953C117.066 228.953 116.374 229.645 116.374 230.486C116.374 231.336 117.066 232.028 117.917 232.028C118.768 232.028 119.461 231.336 119.461 230.486C119.461 229.645 118.768 228.953 117.917 228.953Z" fill="url(#paint58_linear_195_368)"/>
<path d="M163.709 228.879C162.858 228.879 162.165 229.57 162.165 230.411C162.165 231.252 162.858 231.953 163.709 231.953C164.56 231.953 165.252 231.262 165.252 230.411C165.252 229.561 164.56 228.879 163.709 228.879Z" fill="url(#paint59_linear_195_368)"/>
<path d="M209.5 228.879C208.649 228.879 207.957 229.57 207.957 230.411C207.957 231.252 208.649 231.953 209.5 231.953C210.351 231.953 211.043 231.262 211.043 230.411C211.043 229.561 210.351 228.879 209.5 228.879Z" fill="url(#paint60_linear_195_368)"/>
<path d="M346.874 228.879C346.023 228.879 345.331 229.57 345.331 230.411C345.331 231.252 346.023 231.953 346.874 231.953C347.725 231.953 348.417 231.262 348.417 230.411C348.417 229.561 347.725 228.879 346.874 228.879Z" fill="url(#paint61_linear_195_368)"/>
<path d="M392.665 228.879C391.814 228.879 391.122 229.57 391.122 230.411C391.122 231.252 391.814 231.953 392.665 231.953C393.517 231.953 394.209 231.262 394.209 230.411C394.209 229.561 393.517 228.879 392.665 228.879Z" fill="url(#paint62_linear_195_368)"/>
<path d="M438.466 228.879C437.615 228.879 436.923 229.57 436.923 230.411C436.923 231.252 437.615 231.953 438.466 231.953C439.317 231.953 440.009 231.262 440.009 230.411C440.009 229.561 439.308 228.879 438.466 228.879Z" fill="url(#paint63_linear_195_368)"/>
<path d="M301.083 228.879C300.232 228.879 299.539 229.57 299.539 230.411C299.539 231.252 300.232 231.953 301.083 231.953C301.934 231.953 302.626 231.262 302.626 230.411C302.626 229.561 301.934 228.879 301.083 228.879Z" fill="url(#paint64_linear_195_368)"/>
<path d="M255.291 228.879C254.44 228.879 253.748 229.57 253.748 230.411C253.748 231.252 254.44 231.953 255.291 231.953C256.142 231.953 256.835 231.262 256.835 230.411C256.835 229.561 256.142 228.879 255.291 228.879Z" fill="url(#paint65_linear_195_368)"/>
<path d="M-19.4568 274.707C-20.3079 274.707 -21 275.398 -21 276.239C-21 277.09 -20.3079 277.781 -19.4568 277.781C-18.6057 277.781 -17.9136 277.09 -17.9136 276.239C-17.9229 275.389 -18.615 274.707 -19.4568 274.707Z" fill="url(#paint66_linear_195_368)"/>
<path d="M26.3346 274.781C25.4835 274.781 24.7914 275.473 24.7914 276.314C24.7914 277.164 25.4835 277.856 26.3346 277.856C27.1857 277.856 27.8778 277.164 27.8778 276.314C27.8684 275.473 27.1763 274.781 26.3346 274.781Z" fill="url(#paint67_linear_195_368)"/>
<path d="M72.1259 274.781C71.2748 274.781 70.5827 275.473 70.5827 276.314C70.5827 277.164 71.2748 277.856 72.1259 277.856C72.977 277.856 73.6692 277.164 73.6692 276.314C73.6598 275.473 72.977 274.781 72.1259 274.781Z" fill="url(#paint68_linear_195_368)"/>
<path d="M117.917 274.781C117.066 274.781 116.374 275.473 116.374 276.314C116.374 277.164 117.066 277.856 117.917 277.856C118.768 277.856 119.461 277.164 119.461 276.314C119.461 275.473 118.768 274.781 117.917 274.781Z" fill="url(#paint69_linear_195_368)"/>
<path d="M163.709 274.707C162.858 274.707 162.165 275.398 162.165 276.239C162.165 277.09 162.858 277.781 163.709 277.781C164.56 277.781 165.252 277.09 165.252 276.239C165.252 275.389 164.56 274.707 163.709 274.707Z" fill="url(#paint70_linear_195_368)"/>
<path d="M209.5 274.707C208.649 274.707 207.957 275.398 207.957 276.239C207.957 277.09 208.649 277.781 209.5 277.781C210.351 277.781 211.043 277.09 211.043 276.239C211.043 275.389 210.351 274.707 209.5 274.707Z" fill="url(#paint71_linear_195_368)"/>
<path d="M346.874 274.707C346.023 274.707 345.331 275.398 345.331 276.239C345.331 277.09 346.023 277.781 346.874 277.781C347.725 277.781 348.417 277.09 348.417 276.239C348.417 275.389 347.725 274.707 346.874 274.707Z" fill="url(#paint72_linear_195_368)"/>
<path d="M392.665 274.707C391.814 274.707 391.122 275.398 391.122 276.239C391.122 277.09 391.814 277.781 392.665 277.781C393.517 277.781 394.209 277.09 394.209 276.239C394.209 275.389 393.517 274.707 392.665 274.707Z" fill="url(#paint73_linear_195_368)"/>
<path d="M438.466 274.707C437.615 274.707 436.923 275.398 436.923 276.239C436.923 277.09 437.615 277.781 438.466 277.781C439.317 277.781 440.009 277.09 440.009 276.239C440 275.389 439.308 274.707 438.466 274.707Z" fill="url(#paint74_linear_195_368)"/>
<path d="M301.083 274.707C300.232 274.707 299.539 275.398 299.539 276.239C299.539 277.09 300.232 277.781 301.083 277.781C301.934 277.781 302.626 277.09 302.626 276.239C302.626 275.389 301.934 274.707 301.083 274.707Z" fill="url(#paint75_linear_195_368)"/>
<path d="M255.291 274.707C254.44 274.707 253.748 275.398 253.748 276.239C253.748 277.09 254.44 277.781 255.291 277.781C256.142 277.781 256.835 277.09 256.835 276.239C256.835 275.389 256.142 274.707 255.291 274.707Z" fill="url(#paint76_linear_195_368)"/>
<path d="M-19.4568 320.638C-20.3079 320.638 -21 321.329 -21 322.17C-21 323.021 -20.3079 323.712 -19.4568 323.712C-18.6057 323.712 -17.9136 323.021 -17.9136 322.17C-17.9229 321.329 -18.615 320.638 -19.4568 320.638Z" fill="url(#paint77_linear_195_368)"/>
<path d="M26.3346 320.712C25.4835 320.712 24.7914 321.404 24.7914 322.245C24.7914 323.095 25.4835 323.787 26.3346 323.787C27.1857 323.787 27.8778 323.095 27.8778 322.245C27.8684 321.404 27.1763 320.712 26.3346 320.712Z" fill="url(#paint78_linear_195_368)"/>
<path d="M72.1259 320.712C71.2748 320.712 70.5827 321.404 70.5827 322.245C70.5827 323.095 71.2748 323.787 72.1259 323.787C72.977 323.787 73.6692 323.095 73.6692 322.245C73.6598 321.404 72.977 320.712 72.1259 320.712Z" fill="url(#paint79_linear_195_368)"/>
<path d="M117.917 320.712C117.066 320.712 116.374 321.404 116.374 322.245C116.374 323.095 117.066 323.787 117.917 323.787C118.768 323.787 119.461 323.095 119.461 322.245C119.461 321.404 118.768 320.712 117.917 320.712Z" fill="url(#paint80_linear_195_368)"/>
<path d="M163.709 320.638C162.858 320.638 162.165 321.329 162.165 322.17C162.165 323.021 162.858 323.712 163.709 323.712C164.56 323.712 165.252 323.021 165.252 322.17C165.252 321.329 164.56 320.638 163.709 320.638Z" fill="url(#paint81_linear_195_368)"/>
<path d="M209.5 320.638C208.649 320.638 207.957 321.329 207.957 322.17C207.957 323.021 208.649 323.712 209.5 323.712C210.351 323.712 211.043 323.021 211.043 322.17C211.043 321.329 210.351 320.638 209.5 320.638Z" fill="url(#paint82_linear_195_368)"/>
<path d="M346.874 320.638C346.023 320.638 345.331 321.329 345.331 322.17C345.331 323.021 346.023 323.712 346.874 323.712C347.725 323.712 348.417 323.021 348.417 322.17C348.417 321.329 347.725 320.638 346.874 320.638Z" fill="url(#paint83_linear_195_368)"/>
<path d="M392.665 320.638C391.814 320.638 391.122 321.329 391.122 322.17C391.122 323.021 391.814 323.712 392.665 323.712C393.517 323.712 394.209 323.021 394.209 322.17C394.209 321.329 393.517 320.638 392.665 320.638Z" fill="url(#paint84_linear_195_368)"/>
<path d="M438.466 320.638C437.615 320.638 436.923 321.329 436.923 322.17C436.923 323.021 437.615 323.712 438.466 323.712C439.317 323.712 440.009 323.021 440.009 322.17C440 321.329 439.308 320.638 438.466 320.638Z" fill="url(#paint85_linear_195_368)"/>
<path d="M301.083 320.638C300.232 320.638 299.539 321.329 299.539 322.17C299.539 323.021 300.232 323.712 301.083 323.712C301.934 323.712 302.626 323.021 302.626 322.17C302.626 321.329 301.934 320.638 301.083 320.638Z" fill="url(#paint86_linear_195_368)"/>
<path d="M255.291 320.638C254.44 320.638 253.748 321.329 253.748 322.17C253.748 323.021 254.44 323.712 255.291 323.712C256.142 323.712 256.835 323.021 256.835 322.17C256.835 321.329 256.142 320.638 255.291 320.638Z" fill="url(#paint87_linear_195_368)"/>
<path d="M-19.4568 366.195C-20.3079 366.195 -21 366.886 -21 367.727C-21 368.568 -20.3079 369.269 -19.4568 369.269C-18.6057 369.269 -17.9136 368.578 -17.9136 367.727C-17.9136 366.877 -18.615 366.195 -19.4568 366.195Z" fill="url(#paint88_linear_195_368)"/>
<path d="M26.3346 366.279C25.4835 366.279 24.7914 366.97 24.7914 367.811C24.7914 368.662 25.4835 369.353 26.3346 369.353C27.1857 369.353 27.8778 368.662 27.8778 367.811C27.8684 366.97 27.1763 366.279 26.3346 366.279Z" fill="url(#paint89_linear_195_368)"/>
<path d="M72.1259 366.279C71.2748 366.279 70.5827 366.97 70.5827 367.811C70.5827 368.662 71.2748 369.353 72.1259 369.353C72.977 369.353 73.6692 368.662 73.6692 367.811C73.6598 366.97 72.977 366.279 72.1259 366.279Z" fill="url(#paint90_linear_195_368)"/>
<path d="M117.917 366.279C117.066 366.279 116.374 366.97 116.374 367.811C116.374 368.662 117.066 369.353 117.917 369.353C118.768 369.353 119.461 368.662 119.461 367.811C119.461 366.97 118.768 366.279 117.917 366.279Z" fill="url(#paint91_linear_195_368)"/>
<path d="M163.709 366.195C162.858 366.195 162.165 366.886 162.165 367.727C162.165 368.568 162.858 369.269 163.709 369.269C164.56 369.269 165.252 368.578 165.252 367.727C165.252 366.877 164.56 366.195 163.709 366.195Z" fill="url(#paint92_linear_195_368)"/>
<path d="M209.5 366.195C208.649 366.195 207.957 366.886 207.957 367.727C207.957 368.568 208.649 369.269 209.5 369.269C210.351 369.269 211.043 368.578 211.043 367.727C211.043 366.877 210.351 366.195 209.5 366.195Z" fill="url(#paint93_linear_195_368)"/>
<path d="M346.874 366.195C346.023 366.195 345.331 366.886 345.331 367.727C345.331 368.568 346.023 369.269 346.874 369.269C347.725 369.269 348.417 368.578 348.417 367.727C348.417 366.877 347.725 366.195 346.874 366.195Z" fill="url(#paint94_linear_195_368)"/>
<path d="M392.665 366.195C391.814 366.195 391.122 366.886 391.122 367.727C391.122 368.568 391.814 369.269 392.665 369.269C393.517 369.269 394.209 368.578 394.209 367.727C394.209 366.877 393.517 366.195 392.665 366.195Z" fill="url(#paint95_linear_195_368)"/>
<path d="M438.466 366.195C437.615 366.195 436.923 366.886 436.923 367.727C436.923 368.568 437.615 369.269 438.466 369.269C439.317 369.269 440.009 368.578 440.009 367.727C440.009 366.877 439.308 366.195 438.466 366.195Z" fill="url(#paint96_linear_195_368)"/>
<path d="M301.083 366.195C300.232 366.195 299.539 366.886 299.539 367.727C299.539 368.568 300.232 369.269 301.083 369.269C301.934 369.269 302.626 368.578 302.626 367.727C302.626 366.877 301.934 366.195 301.083 366.195Z" fill="url(#paint97_linear_195_368)"/>
<path d="M255.291 366.195C254.44 366.195 253.748 366.886 253.748 367.727C253.748 368.568 254.44 369.269 255.291 369.269C256.142 369.269 256.835 368.578 256.835 367.727C256.835 366.877 256.142 366.195 255.291 366.195Z" fill="url(#paint98_linear_195_368)"/>
<path d="M-19.4568 412.284C-20.3079 412.284 -21 412.976 -21 413.817C-21 414.667 -20.3079 415.359 -19.4568 415.359C-18.6057 415.359 -17.9136 414.667 -17.9136 413.817C-17.9229 412.976 -18.615 412.284 -19.4568 412.284Z" fill="url(#paint99_linear_195_368)"/>
<path d="M26.3346 412.359C25.4835 412.359 24.7914 413.051 24.7914 413.892C24.7914 414.742 25.4835 415.434 26.3346 415.434C27.1857 415.434 27.8778 414.742 27.8778 413.892C27.8684 413.051 27.1763 412.359 26.3346 412.359Z" fill="url(#paint100_linear_195_368)"/>
<path d="M72.1259 412.359C71.2748 412.359 70.5827 413.051 70.5827 413.892C70.5827 414.742 71.2748 415.434 72.1259 415.434C72.977 415.434 73.6692 414.742 73.6692 413.892C73.6598 413.051 72.977 412.359 72.1259 412.359Z" fill="url(#paint101_linear_195_368)"/>
<path d="M117.917 412.359C117.066 412.359 116.374 413.051 116.374 413.892C116.374 414.742 117.066 415.434 117.917 415.434C118.768 415.434 119.461 414.742 119.461 413.892C119.461 413.051 118.768 412.359 117.917 412.359Z" fill="url(#paint102_linear_195_368)"/>
<path d="M163.709 412.284C162.858 412.284 162.165 412.976 162.165 413.817C162.165 414.667 162.858 415.359 163.709 415.359C164.56 415.359 165.252 414.667 165.252 413.817C165.252 412.976 164.56 412.284 163.709 412.284Z" fill="url(#paint103_linear_195_368)"/>
<path d="M209.5 412.284C208.649 412.284 207.957 412.976 207.957 413.817C207.957 414.667 208.649 415.359 209.5 415.359C210.351 415.359 211.043 414.667 211.043 413.817C211.043 412.976 210.351 412.284 209.5 412.284Z" fill="url(#paint104_linear_195_368)"/>
<path d="M346.874 412.284C346.023 412.284 345.331 412.976 345.331 413.817C345.331 414.667 346.023 415.359 346.874 415.359C347.725 415.359 348.417 414.667 348.417 413.817C348.417 412.976 347.725 412.284 346.874 412.284Z" fill="url(#paint105_linear_195_368)"/>
<path d="M392.665 412.284C391.814 412.284 391.122 412.976 391.122 413.817C391.122 414.667 391.814 415.359 392.665 415.359C393.517 415.359 394.209 414.667 394.209 413.817C394.209 412.976 393.517 412.284 392.665 412.284Z" fill="url(#paint106_linear_195_368)"/>
<path d="M438.466 412.284C437.615 412.284 436.923 412.976 436.923 413.817C436.923 414.667 437.615 415.359 438.466 415.359C439.317 415.359 440.009 414.667 440.009 413.817C440 412.976 439.308 412.284 438.466 412.284Z" fill="url(#paint107_linear_195_368)"/>
<path d="M301.083 412.284C300.232 412.284 299.539 412.976 299.539 413.817C299.539 414.667 300.232 415.359 301.083 415.359C301.934 415.359 302.626 414.667 302.626 413.817C302.626 412.976 301.934 412.284 301.083 412.284Z" fill="url(#paint108_linear_195_368)"/>
<path d="M255.291 412.284C254.44 412.284 253.748 412.976 253.748 413.817C253.748 414.667 254.44 415.359 255.291 415.359C256.142 415.359 256.835 414.667 256.835 413.817C256.835 412.976 256.142 412.284 255.291 412.284Z" fill="url(#paint109_linear_195_368)"/>
<path d="M-19.4568 457.841C-20.3079 457.841 -21 458.533 -21 459.374C-21 460.224 -20.3079 460.916 -19.4568 460.916C-18.6057 460.916 -17.9136 460.224 -17.9136 459.374C-17.9229 458.533 -18.615 457.841 -19.4568 457.841Z" fill="url(#paint110_linear_195_368)"/>
<path d="M26.3346 457.925C25.4835 457.925 24.7914 458.617 24.7914 459.458C24.7914 460.308 25.4835 461 26.3346 461C27.1857 461 27.8778 460.308 27.8778 459.458C27.8684 458.617 27.1763 457.925 26.3346 457.925Z" fill="url(#paint111_linear_195_368)"/>
<path d="M72.1259 457.925C71.2748 457.925 70.5827 458.617 70.5827 459.458C70.5827 460.308 71.2748 461 72.1259 461C72.977 461 73.6692 460.308 73.6692 459.458C73.6598 458.617 72.977 457.925 72.1259 457.925Z" fill="url(#paint112_linear_195_368)"/>
<path d="M117.917 457.925C117.066 457.925 116.374 458.617 116.374 459.458C116.374 460.308 117.066 461 117.917 461C118.768 461 119.461 460.308 119.461 459.458C119.461 458.617 118.768 457.925 117.917 457.925Z" fill="url(#paint113_linear_195_368)"/>
<path d="M163.709 457.841C162.858 457.841 162.165 458.533 162.165 459.374C162.165 460.224 162.858 460.916 163.709 460.916C164.56 460.916 165.252 460.224 165.252 459.374C165.252 458.533 164.56 457.841 163.709 457.841Z" fill="url(#paint114_linear_195_368)"/>
<path d="M209.5 457.841C208.649 457.841 207.957 458.533 207.957 459.374C207.957 460.224 208.649 460.916 209.5 460.916C210.351 460.916 211.043 460.224 211.043 459.374C211.043 458.533 210.351 457.841 209.5 457.841Z" fill="url(#paint115_linear_195_368)"/>
<path d="M346.874 457.841C346.023 457.841 345.331 458.533 345.331 459.374C345.331 460.224 346.023 460.916 346.874 460.916C347.725 460.916 348.417 460.224 348.417 459.374C348.417 458.533 347.725 457.841 346.874 457.841Z" fill="url(#paint116_linear_195_368)"/>
<path d="M392.665 457.841C391.814 457.841 391.122 458.533 391.122 459.374C391.122 460.224 391.814 460.916 392.665 460.916C393.517 460.916 394.209 460.224 394.209 459.374C394.209 458.533 393.517 457.841 392.665 457.841Z" fill="url(#paint117_linear_195_368)"/>
<path d="M438.466 457.841C437.615 457.841 436.923 458.533 436.923 459.374C436.923 460.224 437.615 460.916 438.466 460.916C439.317 460.916 440.009 460.224 440.009 459.374C440 458.533 439.308 457.841 438.466 457.841Z" fill="url(#paint118_linear_195_368)"/>
<path d="M301.083 457.841C300.232 457.841 299.539 458.533 299.539 459.374C299.539 460.224 300.232 460.916 301.083 460.916C301.934 460.916 302.626 460.224 302.626 459.374C302.626 458.533 301.934 457.841 301.083 457.841Z" fill="url(#paint119_linear_195_368)"/>
<path d="M255.291 457.841C254.44 457.841 253.748 458.533 253.748 459.374C253.748 460.224 254.44 460.916 255.291 460.916C256.142 460.916 256.835 460.224 256.835 459.374C256.835 458.533 256.142 457.841 255.291 457.841Z" fill="url(#paint120_linear_195_368)"/>
</g>
<defs>
<linearGradient id="paint0_linear_195_368" x1="206" y1="-63" x2="209.505" y2="461" gradientUnits="userSpaceOnUse">
<stop stop-color="#DCDCDC" stop-opacity="0"/>
<stop offset="0.494792" stop-color="#DCDCDC"/>
<stop offset="1" stop-color="#DCDCDC"/>
</linearGradient>
<linearGradient id="paint1_linear_195_368" x1="206" y1="-63" x2="209.505" y2="461" gradientUnits="userSpaceOnUse">
<stop stop-color="#DCDCDC" stop-opacity="0"/>
<stop offset="0.494792" stop-color="#DCDCDC"/>
<stop offset="1" stop-color="#DCDCDC"/>
</linearGradient>
<linearGradient id="paint2_linear_195_368" x1="206" y1="-63" x2="209.505" y2="461" gradientUnits="userSpaceOnUse">
<stop stop-color="#DCDCDC" stop-opacity="0"/>
<stop offset="0.494792" stop-color="#DCDCDC"/>
<stop offset="1" stop-color="#DCDCDC"/>
</linearGradient>
<linearGradient id="paint3_linear_195_368" x1="206" y1="-63" x2="209.505" y2="461" gradientUnits="userSpaceOnUse">
<stop stop-color="#DCDCDC" stop-opacity="0"/>
<stop offset="0.494792" stop-color="#DCDCDC"/>
<stop offset="1" stop-color="#DCDCDC"/>
</linearGradient>
<linearGradient id="paint4_linear_195_368" x1="206" y1="-63" x2="209.505" y2="461" gradientUnits="userSpaceOnUse">
<stop stop-color="#DCDCDC" stop-opacity="0"/>
<stop offset="0.494792" stop-color="#DCDCDC"/>
<stop offset="1" stop-color="#DCDCDC"/>
</linearGradient>
<linearGradient id="paint5_linear_195_368" x1="206" y1="-63" x2="209.505" y2="461" gradientUnits="userSpaceOnUse">
<stop stop-color="#DCDCDC" stop-opacity="0"/>
<stop offset="0.494792" stop-color="#DCDCDC"/>
<stop offset="1" stop-color="#DCDCDC"/>
</linearGradient>
<linearGradient id="paint6_linear_195_368" x1="206" y1="-63" x2="209.505" y2="461" gradientUnits="userSpaceOnUse">
<stop stop-color="#DCDCDC" stop-opacity="0"/>
<stop offset="0.494792" stop-color="#DCDCDC"/>
<stop offset="1" stop-color="#DCDCDC"/>
</linearGradient>
<linearGradient id="paint7_linear_195_368" x1="206" y1="-63" x2="209.505" y2="461" gradientUnits="userSpaceOnUse">
<stop stop-color="#DCDCDC" stop-opacity="0"/>
<stop offset="0.494792" stop-color="#DCDCDC"/>
<stop offset="1" stop-color="#DCDCDC"/>
</linearGradient>
<linearGradient id="paint8_linear_195_368" x1="206" y1="-63" x2="209.505" y2="461" gradientUnits="userSpaceOnUse">
<stop stop-color="#DCDCDC" stop-opacity="0"/>
<stop offset="0.494792" stop-color="#DCDCDC"/>
<stop offset="1" stop-color="#DCDCDC"/>
</linearGradient>
<linearGradient id="paint9_linear_195_368" x1="206" y1="-63" x2="209.505" y2="461" gradientUnits="userSpaceOnUse">
<stop stop-color="#DCDCDC" stop-opacity="0"/>
<stop offset="0.494792" stop-color="#DCDCDC"/>
<stop offset="1" stop-color="#DCDCDC"/>
</linearGradient>
<linearGradient id="paint10_linear_195_368" x1="206" y1="-63" x2="209.505" y2="461" gradientUnits="userSpaceOnUse">
<stop stop-color="#DCDCDC" stop-opacity="0"/>
<stop offset="0.494792" stop-color="#DCDCDC"/>
<stop offset="1" stop-color="#DCDCDC"/>
</linearGradient>
<linearGradient id="paint11_linear_195_368" x1="206" y1="-63" x2="209.505" y2="461" gradientUnits="userSpaceOnUse">
<stop stop-color="#DCDCDC" stop-opacity="0"/>
<stop offset="0.494792" stop-color="#DCDCDC"/>
<stop offset="1" stop-color="#DCDCDC"/>
</linearGradient>
<linearGradient id="paint12_linear_195_368" x1="206" y1="-63" x2="209.505" y2="461" gradientUnits="userSpaceOnUse">
<stop stop-color="#DCDCDC" stop-opacity="0"/>
<stop offset="0.494792" stop-color="#DCDCDC"/>
<stop offset="1" stop-color="#DCDCDC"/>
</linearGradient>
<linearGradient id="paint13_linear_195_368" x1="206" y1="-63" x2="209.505" y2="461" gradientUnits="userSpaceOnUse">
<stop stop-color="#DCDCDC" stop-opacity="0"/>
<stop offset="0.494792" stop-color="#DCDCDC"/>
<stop offset="1" stop-color="#DCDCDC"/>
</linearGradient>
<linearGradient id="paint14_linear_195_368" x1="206" y1="-63" x2="209.505" y2="461" gradientUnits="userSpaceOnUse">
<stop stop-color="#DCDCDC" stop-opacity="0"/>
<stop offset="0.494792" stop-color="#DCDCDC"/>
<stop offset="1" stop-color="#DCDCDC"/>
</linearGradient>
<linearGradient id="paint15_linear_195_368" x1="206" y1="-63" x2="209.505" y2="461" gradientUnits="userSpaceOnUse">
<stop stop-color="#DCDCDC" stop-opacity="0"/>
<stop offset="0.494792" stop-color="#DCDCDC"/>
<stop offset="1" stop-color="#DCDCDC"/>
</linearGradient>
<linearGradient id="paint16_linear_195_368" x1="206" y1="-63" x2="209.505" y2="461" gradientUnits="userSpaceOnUse">
<stop stop-color="#DCDCDC" stop-opacity="0"/>
<stop offset="0.494792" stop-color="#DCDCDC"/>
<stop offset="1" stop-color="#DCDCDC"/>
</linearGradient>
<linearGradient id="paint17_linear_195_368" x1="206" y1="-63" x2="209.505" y2="461" gradientUnits="userSpaceOnUse">
<stop stop-color="#DCDCDC" stop-opacity="0"/>
<stop offset="0.494792" stop-color="#DCDCDC"/>
<stop offset="1" stop-color="#DCDCDC"/>
</linearGradient>
<linearGradient id="paint18_linear_195_368" x1="206" y1="-63" x2="209.505" y2="461" gradientUnits="userSpaceOnUse">
<stop stop-color="#DCDCDC" stop-opacity="0"/>
<stop offset="0.494792" stop-color="#DCDCDC"/>
<stop offset="1" stop-color="#DCDCDC"/>
</linearGradient>
<linearGradient id="paint19_linear_195_368" x1="206" y1="-63" x2="209.505" y2="461" gradientUnits="userSpaceOnUse">
<stop stop-color="#DCDCDC" stop-opacity="0"/>
<stop offset="0.494792" stop-color="#DCDCDC"/>
<stop offset="1" stop-color="#DCDCDC"/>
</linearGradient>
<linearGradient id="paint20_linear_195_368" x1="206" y1="-63" x2="209.505" y2="461" gradientUnits="userSpaceOnUse">
<stop stop-color="#DCDCDC" stop-opacity="0"/>
<stop offset="0.494792" stop-color="#DCDCDC"/>
<stop offset="1" stop-color="#DCDCDC"/>
</linearGradient>
<linearGradient id="paint21_linear_195_368" x1="206" y1="-63" x2="209.505" y2="461" gradientUnits="userSpaceOnUse">
<stop stop-color="#DCDCDC" stop-opacity="0"/>
<stop offset="0.494792" stop-color="#DCDCDC"/>
<stop offset="1" stop-color="#DCDCDC"/>
</linearGradient>
<linearGradient id="paint22_linear_195_368" x1="206" y1="-63" x2="209.505" y2="461" gradientUnits="userSpaceOnUse">
<stop stop-color="#DCDCDC" stop-opacity="0"/>
<stop offset="0.494792" stop-color="#DCDCDC"/>
<stop offset="1" stop-color="#DCDCDC"/>
</linearGradient>
<linearGradient id="paint23_linear_195_368" x1="206" y1="-63" x2="209.505" y2="461" gradientUnits="userSpaceOnUse">
<stop stop-color="#DCDCDC" stop-opacity="0"/>
<stop offset="0.494792" stop-color="#DCDCDC"/>
<stop offset="1" stop-color="#DCDCDC"/>
</linearGradient>
<linearGradient id="paint24_linear_195_368" x1="206" y1="-63" x2="209.505" y2="461" gradientUnits="userSpaceOnUse">
<stop stop-color="#DCDCDC" stop-opacity="0"/>
<stop offset="0.494792" stop-color="#DCDCDC"/>
<stop offset="1" stop-color="#DCDCDC"/>
</linearGradient>
<linearGradient id="paint25_linear_195_368" x1="206" y1="-63" x2="209.505" y2="461" gradientUnits="userSpaceOnUse">
<stop stop-color="#DCDCDC" stop-opacity="0"/>
<stop offset="0.494792" stop-color="#DCDCDC"/>
<stop offset="1" stop-color="#DCDCDC"/>
</linearGradient>
<linearGradient id="paint26_linear_195_368" x1="206" y1="-63" x2="209.505" y2="461" gradientUnits="userSpaceOnUse">
<stop stop-color="#DCDCDC" stop-opacity="0"/>
<stop offset="0.494792" stop-color="#DCDCDC"/>
<stop offset="1" stop-color="#DCDCDC"/>
</linearGradient>
<linearGradient id="paint27_linear_195_368" x1="206" y1="-63" x2="209.505" y2="461" gradientUnits="userSpaceOnUse">
<stop stop-color="#DCDCDC" stop-opacity="0"/>
<stop offset="0.494792" stop-color="#DCDCDC"/>
<stop offset="1" stop-color="#DCDCDC"/>
</linearGradient>
<linearGradient id="paint28_linear_195_368" x1="206" y1="-63" x2="209.505" y2="461" gradientUnits="userSpaceOnUse">
<stop stop-color="#DCDCDC" stop-opacity="0"/>
<stop offset="0.494792" stop-color="#DCDCDC"/>
<stop offset="1" stop-color="#DCDCDC"/>
</linearGradient>
<linearGradient id="paint29_linear_195_368" x1="206" y1="-63" x2="209.505" y2="461" gradientUnits="userSpaceOnUse">
<stop stop-color="#DCDCDC" stop-opacity="0"/>
<stop offset="0.494792" stop-color="#DCDCDC"/>
<stop offset="1" stop-color="#DCDCDC"/>
</linearGradient>
<linearGradient id="paint30_linear_195_368" x1="206" y1="-63" x2="209.505" y2="461" gradientUnits="userSpaceOnUse">
<stop stop-color="#DCDCDC" stop-opacity="0"/>
<stop offset="0.494792" stop-color="#DCDCDC"/>
<stop offset="1" stop-color="#DCDCDC"/>
</linearGradient>
<linearGradient id="paint31_linear_195_368" x1="206" y1="-63" x2="209.505" y2="461" gradientUnits="userSpaceOnUse">
<stop stop-color="#DCDCDC" stop-opacity="0"/>
<stop offset="0.494792" stop-color="#DCDCDC"/>
<stop offset="1" stop-color="#DCDCDC"/>
</linearGradient>
<linearGradient id="paint32_linear_195_368" x1="206" y1="-63" x2="209.505" y2="461" gradientUnits="userSpaceOnUse">
<stop stop-color="#DCDCDC" stop-opacity="0"/>
<stop offset="0.494792" stop-color="#DCDCDC"/>
<stop offset="1" stop-color="#DCDCDC"/>
</linearGradient>
<linearGradient id="paint33_linear_195_368" x1="206" y1="-63" x2="209.505" y2="461" gradientUnits="userSpaceOnUse">
<stop stop-color="#DCDCDC" stop-opacity="0"/>
<stop offset="0.494792" stop-color="#DCDCDC"/>
<stop offset="1" stop-color="#DCDCDC"/>
</linearGradient>
<linearGradient id="paint34_linear_195_368" x1="206" y1="-63" x2="209.505" y2="461" gradientUnits="userSpaceOnUse">
<stop stop-color="#DCDCDC" stop-opacity="0"/>
<stop offset="0.494792" stop-color="#DCDCDC"/>
<stop offset="1" stop-color="#DCDCDC"/>
</linearGradient>
<linearGradient id="paint35_linear_195_368" x1="206" y1="-63" x2="209.505" y2="461" gradientUnits="userSpaceOnUse">
<stop stop-color="#DCDCDC" stop-opacity="0"/>
<stop offset="0.494792" stop-color="#DCDCDC"/>
<stop offset="1" stop-color="#DCDCDC"/>
</linearGradient>
<linearGradient id="paint36_linear_195_368" x1="206" y1="-63" x2="209.505" y2="461" gradientUnits="userSpaceOnUse">
<stop stop-color="#DCDCDC" stop-opacity="0"/>
<stop offset="0.494792" stop-color="#DCDCDC"/>
<stop offset="1" stop-color="#DCDCDC"/>
</linearGradient>
<linearGradient id="paint37_linear_195_368" x1="206" y1="-63" x2="209.505" y2="461" gradientUnits="userSpaceOnUse">
<stop stop-color="#DCDCDC" stop-opacity="0"/>
<stop offset="0.494792" stop-color="#DCDCDC"/>
<stop offset="1" stop-color="#DCDCDC"/>
</linearGradient>
<linearGradient id="paint38_linear_195_368" x1="206" y1="-63" x2="209.505" y2="461" gradientUnits="userSpaceOnUse">
<stop stop-color="#DCDCDC" stop-opacity="0"/>
<stop offset="0.494792" stop-color="#DCDCDC"/>
<stop offset="1" stop-color="#DCDCDC"/>
</linearGradient>
<linearGradient id="paint39_linear_195_368" x1="206" y1="-63" x2="209.505" y2="461" gradientUnits="userSpaceOnUse">
<stop stop-color="#DCDCDC" stop-opacity="0"/>
<stop offset="0.494792" stop-color="#DCDCDC"/>
<stop offset="1" stop-color="#DCDCDC"/>
</linearGradient>
<linearGradient id="paint40_linear_195_368" x1="206" y1="-63" x2="209.505" y2="461" gradientUnits="userSpaceOnUse">
<stop stop-color="#DCDCDC" stop-opacity="0"/>
<stop offset="0.494792" stop-color="#DCDCDC"/>
<stop offset="1" stop-color="#DCDCDC"/>
</linearGradient>
<linearGradient id="paint41_linear_195_368" x1="206" y1="-63" x2="209.505" y2="461" gradientUnits="userSpaceOnUse">
<stop stop-color="#DCDCDC" stop-opacity="0"/>
<stop offset="0.494792" stop-color="#DCDCDC"/>
<stop offset="1" stop-color="#DCDCDC"/>
</linearGradient>
<linearGradient id="paint42_linear_195_368" x1="206" y1="-63" x2="209.505" y2="461" gradientUnits="userSpaceOnUse">
<stop stop-color="#DCDCDC" stop-opacity="0"/>
<stop offset="0.494792" stop-color="#DCDCDC"/>
<stop offset="1" stop-color="#DCDCDC"/>
</linearGradient>
<linearGradient id="paint43_linear_195_368" x1="206" y1="-63" x2="209.505" y2="461" gradientUnits="userSpaceOnUse">
<stop stop-color="#DCDCDC" stop-opacity="0"/>
<stop offset="0.494792" stop-color="#DCDCDC"/>
<stop offset="1" stop-color="#DCDCDC"/>
</linearGradient>
<linearGradient id="paint44_linear_195_368" x1="206" y1="-63" x2="209.505" y2="461" gradientUnits="userSpaceOnUse">
<stop stop-color="#DCDCDC" stop-opacity="0"/>
<stop offset="0.494792" stop-color="#DCDCDC"/>
<stop offset="1" stop-color="#DCDCDC"/>
</linearGradient>
<linearGradient id="paint45_linear_195_368" x1="206" y1="-63" x2="209.505" y2="461" gradientUnits="userSpaceOnUse">
<stop stop-color="#DCDCDC" stop-opacity="0"/>
<stop offset="0.494792" stop-color="#DCDCDC"/>
<stop offset="1" stop-color="#DCDCDC"/>
</linearGradient>
<linearGradient id="paint46_linear_195_368" x1="206" y1="-63" x2="209.505" y2="461" gradientUnits="userSpaceOnUse">
<stop stop-color="#DCDCDC" stop-opacity="0"/>
<stop offset="0.494792" stop-color="#DCDCDC"/>
<stop offset="1" stop-color="#DCDCDC"/>
</linearGradient>
<linearGradient id="paint47_linear_195_368" x1="206" y1="-63" x2="209.505" y2="461" gradientUnits="userSpaceOnUse">
<stop stop-color="#DCDCDC" stop-opacity="0"/>
<stop offset="0.494792" stop-color="#DCDCDC"/>
<stop offset="1" stop-color="#DCDCDC"/>
</linearGradient>
<linearGradient id="paint48_linear_195_368" x1="206" y1="-63" x2="209.505" y2="461" gradientUnits="userSpaceOnUse">
<stop stop-color="#DCDCDC" stop-opacity="0"/>
<stop offset="0.494792" stop-color="#DCDCDC"/>
<stop offset="1" stop-color="#DCDCDC"/>
</linearGradient>
<linearGradient id="paint49_linear_195_368" x1="206" y1="-63" x2="209.505" y2="461" gradientUnits="userSpaceOnUse">
<stop stop-color="#DCDCDC" stop-opacity="0"/>
<stop offset="0.494792" stop-color="#DCDCDC"/>
<stop offset="1" stop-color="#DCDCDC"/>
</linearGradient>
<linearGradient id="paint50_linear_195_368" x1="206" y1="-63" x2="209.505" y2="461" gradientUnits="userSpaceOnUse">
<stop stop-color="#DCDCDC" stop-opacity="0"/>
<stop offset="0.494792" stop-color="#DCDCDC"/>
<stop offset="1" stop-color="#DCDCDC"/>
</linearGradient>
<linearGradient id="paint51_linear_195_368" x1="206" y1="-63" x2="209.505" y2="461" gradientUnits="userSpaceOnUse">
<stop stop-color="#DCDCDC" stop-opacity="0"/>
<stop offset="0.494792" stop-color="#DCDCDC"/>
<stop offset="1" stop-color="#DCDCDC"/>
</linearGradient>
<linearGradient id="paint52_linear_195_368" x1="206" y1="-63" x2="209.505" y2="461" gradientUnits="userSpaceOnUse">
<stop stop-color="#DCDCDC" stop-opacity="0"/>
<stop offset="0.494792" stop-color="#DCDCDC"/>
<stop offset="1" stop-color="#DCDCDC"/>
</linearGradient>
<linearGradient id="paint53_linear_195_368" x1="206" y1="-63" x2="209.505" y2="461" gradientUnits="userSpaceOnUse">
<stop stop-color="#DCDCDC" stop-opacity="0"/>
<stop offset="0.494792" stop-color="#DCDCDC"/>
<stop offset="1" stop-color="#DCDCDC"/>
</linearGradient>
<linearGradient id="paint54_linear_195_368" x1="206" y1="-63" x2="209.505" y2="461" gradientUnits="userSpaceOnUse">
<stop stop-color="#DCDCDC" stop-opacity="0"/>
<stop offset="0.494792" stop-color="#DCDCDC"/>
<stop offset="1" stop-color="#DCDCDC"/>
</linearGradient>
<linearGradient id="paint55_linear_195_368" x1="206" y1="-63" x2="209.505" y2="461" gradientUnits="userSpaceOnUse">
<stop stop-color="#DCDCDC" stop-opacity="0"/>
<stop offset="0.494792" stop-color="#DCDCDC"/>
<stop offset="1" stop-color="#DCDCDC"/>
</linearGradient>
<linearGradient id="paint56_linear_195_368" x1="206" y1="-63" x2="209.505" y2="461" gradientUnits="userSpaceOnUse">
<stop stop-color="#DCDCDC" stop-opacity="0"/>
<stop offset="0.494792" stop-color="#DCDCDC"/>
<stop offset="1" stop-color="#DCDCDC"/>
</linearGradient>
<linearGradient id="paint57_linear_195_368" x1="206" y1="-63" x2="209.505" y2="461" gradientUnits="userSpaceOnUse">
<stop stop-color="#DCDCDC" stop-opacity="0"/>
<stop offset="0.494792" stop-color="#DCDCDC"/>
<stop offset="1" stop-color="#DCDCDC"/>
</linearGradient>
<linearGradient id="paint58_linear_195_368" x1="206" y1="-63" x2="209.505" y2="461" gradientUnits="userSpaceOnUse">
<stop stop-color="#DCDCDC" stop-opacity="0"/>
<stop offset="0.494792" stop-color="#DCDCDC"/>
<stop offset="1" stop-color="#DCDCDC"/>
</linearGradient>
<linearGradient id="paint59_linear_195_368" x1="206" y1="-63" x2="209.505" y2="461" gradientUnits="userSpaceOnUse">
<stop stop-color="#DCDCDC" stop-opacity="0"/>
<stop offset="0.494792" stop-color="#DCDCDC"/>
<stop offset="1" stop-color="#DCDCDC"/>
</linearGradient>
<linearGradient id="paint60_linear_195_368" x1="206" y1="-63" x2="209.505" y2="461" gradientUnits="userSpaceOnUse">
<stop stop-color="#DCDCDC" stop-opacity="0"/>
<stop offset="0.494792" stop-color="#DCDCDC"/>
<stop offset="1" stop-color="#DCDCDC"/>
</linearGradient>
<linearGradient id="paint61_linear_195_368" x1="206" y1="-63" x2="209.505" y2="461" gradientUnits="userSpaceOnUse">
<stop stop-color="#DCDCDC" stop-opacity="0"/>
<stop offset="0.494792" stop-color="#DCDCDC"/>
<stop offset="1" stop-color="#DCDCDC"/>
</linearGradient>
<linearGradient id="paint62_linear_195_368" x1="206" y1="-63" x2="209.505" y2="461" gradientUnits="userSpaceOnUse">
<stop stop-color="#DCDCDC" stop-opacity="0"/>
<stop offset="0.494792" stop-color="#DCDCDC"/>
<stop offset="1" stop-color="#DCDCDC"/>
</linearGradient>
<linearGradient id="paint63_linear_195_368" x1="206" y1="-63" x2="209.505" y2="461" gradientUnits="userSpaceOnUse">
<stop stop-color="#DCDCDC" stop-opacity="0"/>
<stop offset="0.494792" stop-color="#DCDCDC"/>
<stop offset="1" stop-color="#DCDCDC"/>
</linearGradient>
<linearGradient id="paint64_linear_195_368" x1="206" y1="-63" x2="209.505" y2="461" gradientUnits="userSpaceOnUse">
<stop stop-color="#DCDCDC" stop-opacity="0"/>
<stop offset="0.494792" stop-color="#DCDCDC"/>
<stop offset="1" stop-color="#DCDCDC"/>
</linearGradient>
<linearGradient id="paint65_linear_195_368" x1="206" y1="-63" x2="209.505" y2="461" gradientUnits="userSpaceOnUse">
<stop stop-color="#DCDCDC" stop-opacity="0"/>
<stop offset="0.494792" stop-color="#DCDCDC"/>
<stop offset="1" stop-color="#DCDCDC"/>
</linearGradient>
<linearGradient id="paint66_linear_195_368" x1="206" y1="-63" x2="209.505" y2="461" gradientUnits="userSpaceOnUse">
<stop stop-color="#DCDCDC" stop-opacity="0"/>
<stop offset="0.494792" stop-color="#DCDCDC"/>
<stop offset="1" stop-color="#DCDCDC"/>
</linearGradient>
<linearGradient id="paint67_linear_195_368" x1="206" y1="-63" x2="209.505" y2="461" gradientUnits="userSpaceOnUse">
<stop stop-color="#DCDCDC" stop-opacity="0"/>
<stop offset="0.494792" stop-color="#DCDCDC"/>
<stop offset="1" stop-color="#DCDCDC"/>
</linearGradient>
<linearGradient id="paint68_linear_195_368" x1="206" y1="-63" x2="209.505" y2="461" gradientUnits="userSpaceOnUse">
<stop stop-color="#DCDCDC" stop-opacity="0"/>
<stop offset="0.494792" stop-color="#DCDCDC"/>
<stop offset="1" stop-color="#DCDCDC"/>
</linearGradient>
<linearGradient id="paint69_linear_195_368" x1="206" y1="-63" x2="209.505" y2="461" gradientUnits="userSpaceOnUse">
<stop stop-color="#DCDCDC" stop-opacity="0"/>
<stop offset="0.494792" stop-color="#DCDCDC"/>
<stop offset="1" stop-color="#DCDCDC"/>
</linearGradient>
<linearGradient id="paint70_linear_195_368" x1="206" y1="-63" x2="209.505" y2="461" gradientUnits="userSpaceOnUse">
<stop stop-color="#DCDCDC" stop-opacity="0"/>
<stop offset="0.494792" stop-color="#DCDCDC"/>
<stop offset="1" stop-color="#DCDCDC"/>
</linearGradient>
<linearGradient id="paint71_linear_195_368" x1="206" y1="-63" x2="209.505" y2="461" gradientUnits="userSpaceOnUse">
<stop stop-color="#DCDCDC" stop-opacity="0"/>
<stop offset="0.494792" stop-color="#DCDCDC"/>
<stop offset="1" stop-color="#DCDCDC"/>
</linearGradient>
<linearGradient id="paint72_linear_195_368" x1="206" y1="-63" x2="209.505" y2="461" gradientUnits="userSpaceOnUse">
<stop stop-color="#DCDCDC" stop-opacity="0"/>
<stop offset="0.494792" stop-color="#DCDCDC"/>
<stop offset="1" stop-color="#DCDCDC"/>
</linearGradient>
<linearGradient id="paint73_linear_195_368" x1="206" y1="-63" x2="209.505" y2="461" gradientUnits="userSpaceOnUse">
<stop stop-color="#DCDCDC" stop-opacity="0"/>
<stop offset="0.494792" stop-color="#DCDCDC"/>
<stop offset="1" stop-color="#DCDCDC"/>
</linearGradient>
<linearGradient id="paint74_linear_195_368" x1="206" y1="-63" x2="209.505" y2="461" gradientUnits="userSpaceOnUse">
<stop stop-color="#DCDCDC" stop-opacity="0"/>
<stop offset="0.494792" stop-color="#DCDCDC"/>
<stop offset="1" stop-color="#DCDCDC"/>
</linearGradient>
<linearGradient id="paint75_linear_195_368" x1="206" y1="-63" x2="209.505" y2="461" gradientUnits="userSpaceOnUse">
<stop stop-color="#DCDCDC" stop-opacity="0"/>
<stop offset="0.494792" stop-color="#DCDCDC"/>
<stop offset="1" stop-color="#DCDCDC"/>
</linearGradient>
<linearGradient id="paint76_linear_195_368" x1="206" y1="-63" x2="209.505" y2="461" gradientUnits="userSpaceOnUse">
<stop stop-color="#DCDCDC" stop-opacity="0"/>
<stop offset="0.494792" stop-color="#DCDCDC"/>
<stop offset="1" stop-color="#DCDCDC"/>
</linearGradient>
<linearGradient id="paint77_linear_195_368" x1="206" y1="-63" x2="209.505" y2="461" gradientUnits="userSpaceOnUse">
<stop stop-color="#DCDCDC" stop-opacity="0"/>
<stop offset="0.494792" stop-color="#DCDCDC"/>
<stop offset="1" stop-color="#DCDCDC"/>
</linearGradient>
<linearGradient id="paint78_linear_195_368" x1="206" y1="-63" x2="209.505" y2="461" gradientUnits="userSpaceOnUse">
<stop stop-color="#DCDCDC" stop-opacity="0"/>
<stop offset="0.494792" stop-color="#DCDCDC"/>
<stop offset="1" stop-color="#DCDCDC"/>
</linearGradient>
<linearGradient id="paint79_linear_195_368" x1="206" y1="-63" x2="209.505" y2="461" gradientUnits="userSpaceOnUse">
<stop stop-color="#DCDCDC" stop-opacity="0"/>
<stop offset="0.494792" stop-color="#DCDCDC"/>
<stop offset="1" stop-color="#DCDCDC"/>
</linearGradient>
<linearGradient id="paint80_linear_195_368" x1="206" y1="-63" x2="209.505" y2="461" gradientUnits="userSpaceOnUse">
<stop stop-color="#DCDCDC" stop-opacity="0"/>
<stop offset="0.494792" stop-color="#DCDCDC"/>
<stop offset="1" stop-color="#DCDCDC"/>
</linearGradient>
<linearGradient id="paint81_linear_195_368" x1="206" y1="-63" x2="209.505" y2="461" gradientUnits="userSpaceOnUse">
<stop stop-color="#DCDCDC" stop-opacity="0"/>
<stop offset="0.494792" stop-color="#DCDCDC"/>
<stop offset="1" stop-color="#DCDCDC"/>
</linearGradient>
<linearGradient id="paint82_linear_195_368" x1="206" y1="-63" x2="209.505" y2="461" gradientUnits="userSpaceOnUse">
<stop stop-color="#DCDCDC" stop-opacity="0"/>
<stop offset="0.494792" stop-color="#DCDCDC"/>
<stop offset="1" stop-color="#DCDCDC"/>
</linearGradient>
<linearGradient id="paint83_linear_195_368" x1="206" y1="-63" x2="209.505" y2="461" gradientUnits="userSpaceOnUse">
<stop stop-color="#DCDCDC" stop-opacity="0"/>
<stop offset="0.494792" stop-color="#DCDCDC"/>
<stop offset="1" stop-color="#DCDCDC"/>
</linearGradient>
<linearGradient id="paint84_linear_195_368" x1="206" y1="-63" x2="209.505" y2="461" gradientUnits="userSpaceOnUse">
<stop stop-color="#DCDCDC" stop-opacity="0"/>
<stop offset="0.494792" stop-color="#DCDCDC"/>
<stop offset="1" stop-color="#DCDCDC"/>
</linearGradient>
<linearGradient id="paint85_linear_195_368" x1="206" y1="-63" x2="209.505" y2="461" gradientUnits="userSpaceOnUse">
<stop stop-color="#DCDCDC" stop-opacity="0"/>
<stop offset="0.494792" stop-color="#DCDCDC"/>
<stop offset="1" stop-color="#DCDCDC"/>
</linearGradient>
<linearGradient id="paint86_linear_195_368" x1="206" y1="-63" x2="209.505" y2="461" gradientUnits="userSpaceOnUse">
<stop stop-color="#DCDCDC" stop-opacity="0"/>
<stop offset="0.494792" stop-color="#DCDCDC"/>
<stop offset="1" stop-color="#DCDCDC"/>
</linearGradient>
<linearGradient id="paint87_linear_195_368" x1="206" y1="-63" x2="209.505" y2="461" gradientUnits="userSpaceOnUse">
<stop stop-color="#DCDCDC" stop-opacity="0"/>
<stop offset="0.494792" stop-color="#DCDCDC"/>
<stop offset="1" stop-color="#DCDCDC"/>
</linearGradient>
<linearGradient id="paint88_linear_195_368" x1="206" y1="-63" x2="209.505" y2="461" gradientUnits="userSpaceOnUse">
<stop stop-color="#DCDCDC" stop-opacity="0"/>
<stop offset="0.494792" stop-color="#DCDCDC"/>
<stop offset="1" stop-color="#DCDCDC"/>
</linearGradient>
<linearGradient id="paint89_linear_195_368" x1="206" y1="-63" x2="209.505" y2="461" gradientUnits="userSpaceOnUse">
<stop stop-color="#DCDCDC" stop-opacity="0"/>
<stop offset="0.494792" stop-color="#DCDCDC"/>
<stop offset="1" stop-color="#DCDCDC"/>
</linearGradient>
<linearGradient id="paint90_linear_195_368" x1="206" y1="-63" x2="209.505" y2="461" gradientUnits="userSpaceOnUse">
<stop stop-color="#DCDCDC" stop-opacity="0"/>
<stop offset="0.494792" stop-color="#DCDCDC"/>
<stop offset="1" stop-color="#DCDCDC"/>
</linearGradient>
<linearGradient id="paint91_linear_195_368" x1="206" y1="-63" x2="209.505" y2="461" gradientUnits="userSpaceOnUse">
<stop stop-color="#DCDCDC" stop-opacity="0"/>
<stop offset="0.494792" stop-color="#DCDCDC"/>
<stop offset="1" stop-color="#DCDCDC"/>
</linearGradient>
<linearGradient id="paint92_linear_195_368" x1="206" y1="-63" x2="209.505" y2="461" gradientUnits="userSpaceOnUse">
<stop stop-color="#DCDCDC" stop-opacity="0"/>
<stop offset="0.494792" stop-color="#DCDCDC"/>
<stop offset="1" stop-color="#DCDCDC"/>
</linearGradient>
<linearGradient id="paint93_linear_195_368" x1="206" y1="-63" x2="209.505" y2="461" gradientUnits="userSpaceOnUse">
<stop stop-color="#DCDCDC" stop-opacity="0"/>
<stop offset="0.494792" stop-color="#DCDCDC"/>
<stop offset="1" stop-color="#DCDCDC"/>
</linearGradient>
<linearGradient id="paint94_linear_195_368" x1="206" y1="-63" x2="209.505" y2="461" gradientUnits="userSpaceOnUse">
<stop stop-color="#DCDCDC" stop-opacity="0"/>
<stop offset="0.494792" stop-color="#DCDCDC"/>
<stop offset="1" stop-color="#DCDCDC"/>
</linearGradient>
<linearGradient id="paint95_linear_195_368" x1="206" y1="-63" x2="209.505" y2="461" gradientUnits="userSpaceOnUse">
<stop stop-color="#DCDCDC" stop-opacity="0"/>
<stop offset="0.494792" stop-color="#DCDCDC"/>
<stop offset="1" stop-color="#DCDCDC"/>
</linearGradient>
<linearGradient id="paint96_linear_195_368" x1="206" y1="-63" x2="209.505" y2="461" gradientUnits="userSpaceOnUse">
<stop stop-color="#DCDCDC" stop-opacity="0"/>
<stop offset="0.494792" stop-color="#DCDCDC"/>
<stop offset="1" stop-color="#DCDCDC"/>
</linearGradient>
<linearGradient id="paint97_linear_195_368" x1="206" y1="-63" x2="209.505" y2="461" gradientUnits="userSpaceOnUse">
<stop stop-color="#DCDCDC" stop-opacity="0"/>
<stop offset="0.494792" stop-color="#DCDCDC"/>
<stop offset="1" stop-color="#DCDCDC"/>
</linearGradient>
<linearGradient id="paint98_linear_195_368" x1="206" y1="-63" x2="209.505" y2="461" gradientUnits="userSpaceOnUse">
<stop stop-color="#DCDCDC" stop-opacity="0"/>
<stop offset="0.494792" stop-color="#DCDCDC"/>
<stop offset="1" stop-color="#DCDCDC"/>
</linearGradient>
<linearGradient id="paint99_linear_195_368" x1="206" y1="-63" x2="209.505" y2="461" gradientUnits="userSpaceOnUse">
<stop stop-color="#DCDCDC" stop-opacity="0"/>
<stop offset="0.494792" stop-color="#DCDCDC"/>
<stop offset="1" stop-color="#DCDCDC"/>
</linearGradient>
<linearGradient id="paint100_linear_195_368" x1="206" y1="-63" x2="209.505" y2="461" gradientUnits="userSpaceOnUse">
<stop stop-color="#DCDCDC" stop-opacity="0"/>
<stop offset="0.494792" stop-color="#DCDCDC"/>
<stop offset="1" stop-color="#DCDCDC"/>
</linearGradient>
<linearGradient id="paint101_linear_195_368" x1="206" y1="-63" x2="209.505" y2="461" gradientUnits="userSpaceOnUse">
<stop stop-color="#DCDCDC" stop-opacity="0"/>
<stop offset="0.494792" stop-color="#DCDCDC"/>
<stop offset="1" stop-color="#DCDCDC"/>
</linearGradient>
<linearGradient id="paint102_linear_195_368" x1="206" y1="-63" x2="209.505" y2="461" gradientUnits="userSpaceOnUse">
<stop stop-color="#DCDCDC" stop-opacity="0"/>
<stop offset="0.494792" stop-color="#DCDCDC"/>
<stop offset="1" stop-color="#DCDCDC"/>
</linearGradient>
<linearGradient id="paint103_linear_195_368" x1="206" y1="-63" x2="209.505" y2="461" gradientUnits="userSpaceOnUse">
<stop stop-color="#DCDCDC" stop-opacity="0"/>
<stop offset="0.494792" stop-color="#DCDCDC"/>
<stop offset="1" stop-color="#DCDCDC"/>
</linearGradient>
<linearGradient id="paint104_linear_195_368" x1="206" y1="-63" x2="209.505" y2="461" gradientUnits="userSpaceOnUse">
<stop stop-color="#DCDCDC" stop-opacity="0"/>
<stop offset="0.494792" stop-color="#DCDCDC"/>
<stop offset="1" stop-color="#DCDCDC"/>
</linearGradient>
<linearGradient id="paint105_linear_195_368" x1="206" y1="-63" x2="209.505" y2="461" gradientUnits="userSpaceOnUse">
<stop stop-color="#DCDCDC" stop-opacity="0"/>
<stop offset="0.494792" stop-color="#DCDCDC"/>
<stop offset="1" stop-color="#DCDCDC"/>
</linearGradient>
<linearGradient id="paint106_linear_195_368" x1="206" y1="-63" x2="209.505" y2="461" gradientUnits="userSpaceOnUse">
<stop stop-color="#DCDCDC" stop-opacity="0"/>
<stop offset="0.494792" stop-color="#DCDCDC"/>
<stop offset="1" stop-color="#DCDCDC"/>
</linearGradient>
<linearGradient id="paint107_linear_195_368" x1="206" y1="-63" x2="209.505" y2="461" gradientUnits="userSpaceOnUse">
<stop stop-color="#DCDCDC" stop-opacity="0"/>
<stop offset="0.494792" stop-color="#DCDCDC"/>
<stop offset="1" stop-color="#DCDCDC"/>
</linearGradient>
<linearGradient id="paint108_linear_195_368" x1="206" y1="-63" x2="209.505" y2="461" gradientUnits="userSpaceOnUse">
<stop stop-color="#DCDCDC" stop-opacity="0"/>
<stop offset="0.494792" stop-color="#DCDCDC"/>
<stop offset="1" stop-color="#DCDCDC"/>
</linearGradient>
<linearGradient id="paint109_linear_195_368" x1="206" y1="-63" x2="209.505" y2="461" gradientUnits="userSpaceOnUse">
<stop stop-color="#DCDCDC" stop-opacity="0"/>
<stop offset="0.494792" stop-color="#DCDCDC"/>
<stop offset="1" stop-color="#DCDCDC"/>
</linearGradient>
<linearGradient id="paint110_linear_195_368" x1="206" y1="-63" x2="209.505" y2="461" gradientUnits="userSpaceOnUse">
<stop stop-color="#DCDCDC" stop-opacity="0"/>
<stop offset="0.494792" stop-color="#DCDCDC"/>
<stop offset="1" stop-color="#DCDCDC"/>
</linearGradient>
<linearGradient id="paint111_linear_195_368" x1="206" y1="-63" x2="209.505" y2="461" gradientUnits="userSpaceOnUse">
<stop stop-color="#DCDCDC" stop-opacity="0"/>
<stop offset="0.494792" stop-color="#DCDCDC"/>
<stop offset="1" stop-color="#DCDCDC"/>
</linearGradient>
<linearGradient id="paint112_linear_195_368" x1="206" y1="-63" x2="209.505" y2="461" gradientUnits="userSpaceOnUse">
<stop stop-color="#DCDCDC" stop-opacity="0"/>
<stop offset="0.494792" stop-color="#DCDCDC"/>
<stop offset="1" stop-color="#DCDCDC"/>
</linearGradient>
<linearGradient id="paint113_linear_195_368" x1="206" y1="-63" x2="209.505" y2="461" gradientUnits="userSpaceOnUse">
<stop stop-color="#DCDCDC" stop-opacity="0"/>
<stop offset="0.494792" stop-color="#DCDCDC"/>
<stop offset="1" stop-color="#DCDCDC"/>
</linearGradient>
<linearGradient id="paint114_linear_195_368" x1="206" y1="-63" x2="209.505" y2="461" gradientUnits="userSpaceOnUse">
<stop stop-color="#DCDCDC" stop-opacity="0"/>
<stop offset="0.494792" stop-color="#DCDCDC"/>
<stop offset="1" stop-color="#DCDCDC"/>
</linearGradient>
<linearGradient id="paint115_linear_195_368" x1="206" y1="-63" x2="209.505" y2="461" gradientUnits="userSpaceOnUse">
<stop stop-color="#DCDCDC" stop-opacity="0"/>
<stop offset="0.494792" stop-color="#DCDCDC"/>
<stop offset="1" stop-color="#DCDCDC"/>
</linearGradient>
<linearGradient id="paint116_linear_195_368" x1="206" y1="-63" x2="209.505" y2="461" gradientUnits="userSpaceOnUse">
<stop stop-color="#DCDCDC" stop-opacity="0"/>
<stop offset="0.494792" stop-color="#DCDCDC"/>
<stop offset="1" stop-color="#DCDCDC"/>
</linearGradient>
<linearGradient id="paint117_linear_195_368" x1="206" y1="-63" x2="209.505" y2="461" gradientUnits="userSpaceOnUse">
<stop stop-color="#DCDCDC" stop-opacity="0"/>
<stop offset="0.494792" stop-color="#DCDCDC"/>
<stop offset="1" stop-color="#DCDCDC"/>
</linearGradient>
<linearGradient id="paint118_linear_195_368" x1="206" y1="-63" x2="209.505" y2="461" gradientUnits="userSpaceOnUse">
<stop stop-color="#DCDCDC" stop-opacity="0"/>
<stop offset="0.494792" stop-color="#DCDCDC"/>
<stop offset="1" stop-color="#DCDCDC"/>
</linearGradient>
<linearGradient id="paint119_linear_195_368" x1="206" y1="-63" x2="209.505" y2="461" gradientUnits="userSpaceOnUse">
<stop stop-color="#DCDCDC" stop-opacity="0"/>
<stop offset="0.494792" stop-color="#DCDCDC"/>
<stop offset="1" stop-color="#DCDCDC"/>
</linearGradient>
<linearGradient id="paint120_linear_195_368" x1="206" y1="-63" x2="209.505" y2="461" gradientUnits="userSpaceOnUse">
<stop stop-color="#DCDCDC" stop-opacity="0"/>
<stop offset="0.494792" stop-color="#DCDCDC"/>
<stop offset="1" stop-color="#DCDCDC"/>
</linearGradient>
</defs>
</svg>
