<svg width="56" height="56" viewBox="0 0 56 56" fill="none" xmlns="http://www.w3.org/2000/svg">
<rect width="56" height="56" fill="#0000FF"/>
<g clip-path="url(#clip0_0_1)">
<path d="M14.796 18.0137C12.7972 18.0185 11.1778 19.6364 11.1709 21.6352V40.5414H10.0957C9.79835 40.5414 9.55627 40.745 9.55627 41.0424V43.4072C9.55838 44.3632 9.94071 45.2792 10.6189 45.9532C11.297 46.6271 12.2152 47.0038 13.1711 46.9999H42.8469C43.8031 47.0038 44.7213 46.6271 45.3994 45.9532C46.0773 45.2792 46.4596 44.3632 46.4617 43.4072V41.0424C46.4617 40.745 46.2196 40.5414 45.9223 40.5414H44.8471V21.6352C44.8405 19.6364 43.2208 18.0185 41.2223 18.0137H32.2377V15.9378H35.5309C35.8283 15.9444 36.0748 15.7089 36.0821 15.4113V13.3399C36.419 13.2396 36.7266 13.0594 36.9789 12.8146C37.7772 12.0181 37.7781 10.7251 36.9813 9.92744C36.1842 9.13005 34.8912 9.13005 34.0941 9.92744C33.297 10.7251 33.2979 12.0181 34.0962 12.8146C34.3413 13.075 34.6576 13.2576 35.0056 13.3399V14.8614H31.7052C31.4046 14.8665 31.1631 15.1107 31.1613 15.4113V18.0137H28.5472V13.0026C29.5314 12.7332 30.1642 11.7772 30.0285 10.766C29.8924 9.75475 29.0295 9 28.009 9C26.9887 9 26.1256 9.75475 25.9898 10.766C25.8538 11.7772 26.4869 12.7332 27.4708 13.0026V18.0137H24.7029V15.4113C24.6939 15.1077 24.447 14.8653 24.1434 14.8614H21.0123V13.3399C21.3607 13.2576 21.677 13.075 21.9224 12.8146C22.7183 12.019 22.7195 10.729 21.9257 9.93135H21.9272C21.3445 9.34839 20.4675 9.1742 19.7059 9.48955C18.9442 9.8052 18.4478 10.5485 18.4481 11.373C18.4445 11.9133 18.6571 12.4326 19.0388 12.8146C19.2914 13.0594 19.5993 13.2396 19.9359 13.3399V15.4113C19.9431 15.7089 20.1897 15.9444 20.4873 15.9378H23.6265V18.0137H14.796ZM34.8504 10.6927C35.2261 10.3167 35.8355 10.3167 36.2115 10.6924C36.5872 11.0684 36.5872 11.6778 36.2115 12.0535C35.8355 12.4296 35.2261 12.4296 34.8504 12.0535C34.4753 11.6775 34.4753 11.0687 34.8504 10.6927ZM27.0467 11.036C27.0467 10.6005 27.3392 10.2191 27.76 10.1064C28.1808 9.99352 28.6247 10.1773 28.8424 10.5545C29.0602 10.9318 28.9974 11.4084 28.6896 11.7162C28.4141 11.9914 28.0003 12.0737 27.6408 11.9247C27.2813 11.7757 27.0467 11.4249 27.0467 11.036ZM19.5251 11.373C19.5251 10.9137 19.8491 10.5185 20.2996 10.429C20.7498 10.3395 21.2009 10.5804 21.3766 11.0048C21.5523 11.4288 21.404 11.9181 21.0222 12.1734C20.6402 12.4283 20.1314 12.3782 19.8068 12.0535C19.6257 11.8733 19.5242 11.6286 19.5251 11.373ZM45.3853 43.4072C45.3835 44.0779 45.1147 44.7203 44.6387 45.1924C44.1623 45.6646 43.5175 45.9277 42.8469 45.9235H13.1711C12.5005 45.9277 11.856 45.6646 11.3796 45.1924C10.9033 44.7203 10.6345 44.0779 10.6327 43.4072V41.6178H23.2613L23.7259 42.0948C24.4137 42.8288 25.3771 43.2411 26.383 43.2324H29.6353C30.6411 43.2411 31.6046 42.8288 32.2924 42.0948L32.7567 41.6178H45.3853V43.4072ZM43.7707 21.6352V40.5414H32.521C32.3729 40.5345 32.229 40.591 32.1251 40.6964L31.5007 41.3559C31.0181 41.8716 30.3417 42.1617 29.6353 42.156H26.383C25.6754 42.1584 24.999 41.865 24.5173 41.3466L23.8932 40.6922C23.7887 40.588 23.6448 40.533 23.4973 40.5414H12.2473V21.6352C12.2533 20.2308 13.3916 19.0943 14.796 19.0901H41.2223C42.6267 19.0943 43.7647 20.2308 43.7707 21.6352Z" fill="white"/>
<path d="M41.8485 21.7811C41.8485 21.4841 41.6077 21.2429 41.3103 21.2429H14.7845C14.4875 21.2429 14.2463 21.4841 14.2463 21.7811V38.3117C14.2463 38.609 14.4875 38.8499 14.7845 38.8499H41.3103C41.6077 38.8499 41.8485 38.609 41.8485 38.3117V21.7811ZM15.3227 22.3193H40.6952V37.8504H15.3227V22.3193Z" fill="white"/>
<path d="M34.2824 28.7682L33.3021 28.6736C33.1877 28.2865 33.03 27.9135 32.8318 27.5618L33.449 26.8163C33.6256 26.6034 33.6118 26.291 33.4169 26.0943L32.1449 24.8095C31.9488 24.6112 31.6337 24.5959 31.419 24.774L30.6703 25.3948C30.318 25.1987 29.9453 25.0413 29.5587 24.926L29.4644 23.9559C29.4377 23.6805 29.2052 23.4709 28.9286 23.4727H27.105C26.8287 23.4709 26.5965 23.6799 26.5695 23.955L26.4752 24.9266C26.0871 25.0398 25.7135 25.1963 25.3609 25.3933L24.6152 24.7743C24.4013 24.5971 24.0881 24.6115 23.8914 24.8077L22.6038 26.0922C22.4071 26.2883 22.3924 26.6025 22.5699 26.8166L23.1895 27.5639C22.9933 27.9156 22.8363 28.2877 22.7206 28.6736L21.7355 28.7682C21.4583 28.7944 21.246 29.0256 21.243 29.304V31.125C21.246 31.4034 21.4586 31.6346 21.7355 31.6608L22.7158 31.7551C22.8303 32.1422 22.9882 32.5152 23.1862 32.8672L22.569 33.6124C22.3918 33.8265 22.4065 34.1407 22.6035 34.3371L23.8911 35.6216C24.0875 35.8177 24.401 35.8322 24.6149 35.655L25.3636 35.0345C25.7159 35.2306 26.0886 35.388 26.4749 35.5033L26.5695 36.4593C26.5977 36.7317 26.8314 36.9362 27.105 36.9278H28.9286C29.2022 36.9362 29.4359 36.732 29.4644 36.4599L29.5587 35.4952C29.9465 35.3832 30.3201 35.2279 30.673 35.0318L31.4187 35.6529C31.6319 35.8304 31.9455 35.8162 32.1422 35.6204L33.4295 34.3365C33.6262 34.1401 33.6409 33.8262 33.4637 33.6124L32.8441 32.8651C33.0402 32.5131 33.1973 32.141 33.3129 31.7551L34.2827 31.6608C34.5596 31.6343 34.772 31.4034 34.7747 31.1253V29.304C34.772 29.0256 34.5596 28.7944 34.2824 28.7682V28.7682ZM33.6986 30.6369L32.8414 30.7201C32.6089 30.7426 32.417 30.9114 32.3651 31.1391C32.2464 31.6668 32.0335 32.1686 31.7368 32.621C31.6079 32.8183 31.6223 33.0766 31.7728 33.2583L32.3224 33.9217L31.729 34.5137L31.0643 33.9629C30.882 33.8115 30.6219 33.7974 30.424 33.9283C29.9747 34.226 29.4734 34.4368 28.9463 34.5494C28.7199 34.5909 28.5478 34.7768 28.5241 35.0056L28.4406 35.8514H27.5939L27.5101 35.0056C27.487 34.7741 27.3149 34.5852 27.0863 34.5404C26.5587 34.4251 26.0562 34.2148 25.6036 33.9199C25.406 33.7941 25.1495 33.8106 24.9693 33.9608L24.3049 34.5128L23.7118 33.9211L24.262 33.258C24.4136 33.0751 24.4272 32.8144 24.2956 32.6164C23.9974 32.168 23.7859 31.6677 23.6724 31.1412C23.6195 30.912 23.4261 30.7423 23.1919 30.7201L22.3194 30.6363V29.793L23.1919 29.7092C23.4246 29.687 23.6168 29.5179 23.6688 29.2902C23.7874 28.7625 24.0001 28.2603 24.2971 27.8083C24.426 27.611 24.4112 27.3527 24.2611 27.171L23.7115 26.5076L24.3046 25.9153L24.9693 26.4661C25.1519 26.6175 25.4117 26.6316 25.6096 26.501C26.0589 26.203 26.5602 25.9925 27.0872 25.8796C27.3161 25.8321 27.4873 25.6417 27.5101 25.4092L27.5939 24.5491H28.4403L28.5241 25.4089C28.5469 25.642 28.7184 25.8333 28.9475 25.8814C29.4755 25.9982 29.978 26.2093 30.4303 26.5055C30.6276 26.6319 30.8844 26.6163 31.0646 26.4664L31.7269 25.9174L32.3086 26.5049L31.7563 27.1707C31.6046 27.3536 31.5911 27.6143 31.7226 27.8122C32.0209 28.2606 32.2323 28.7613 32.3461 29.2875C32.3987 29.517 32.5921 29.6867 32.8264 29.7089L33.6986 29.793V30.6369Z" fill="white"/>
<path d="M28.0106 26.4177C25.9142 26.4204 24.217 28.1215 24.2185 30.2176C24.2203 32.3136 25.9205 34.0117 28.0169 34.0108C30.1129 34.0102 31.8116 32.3106 31.8116 30.2143C31.808 28.1173 30.1075 26.4189 28.0106 26.4177V26.4177ZM28.0106 32.9344C26.5089 32.9317 25.2934 31.713 25.2949 30.2113C25.2967 28.7096 26.5152 27.4932 28.0169 27.4941C29.5185 27.495 30.7355 28.7126 30.7352 30.2143C30.7322 31.7172 29.5134 32.9341 28.0106 32.9344V32.9344Z" fill="white"/>
</g>
<defs>
<clipPath id="clip0_0_1">
<rect width="38" height="38" fill="white" transform="translate(9 9)"/>
</clipPath>
</defs>
</svg>
