<svg width="56" height="56" viewBox="0 0 56 56" fill="none" xmlns="http://www.w3.org/2000/svg">
<rect width="56" height="56" fill="#0000FF"/>
<path d="M29.1042 30.9166H38.7709C39.1044 30.9166 39.3751 30.6459 39.3751 30.3124C39.3751 29.9789 39.1044 29.7083 38.7709 29.7083H29.1042C28.7707 29.7083 28.5 29.9789 28.5 30.3124C28.5 30.6459 28.7707 30.9166 29.1042 30.9166Z" fill="white"/>
<path d="M43 25.4792V23.0625C43 22.4789 42.826 21.9387 42.5384 21.4759C42.5312 21.4614 42.53 21.4445 42.5215 21.4312L38.7853 15.4258C38.2307 14.5341 37.2713 14 36.2201 14H20.7812C19.7287 14 18.7705 14.5341 18.2159 15.4258L14.4797 21.4312C14.4724 21.4433 14.4724 21.4566 14.4652 21.4699C14.1752 21.9327 14 22.4764 14 23.0625V25.4792C14 26.47 14.4869 27.3449 15.2277 27.8959C14.4869 28.4468 14 29.3204 14 30.3125V32.7292C14 33.72 14.4869 34.5949 15.2277 35.1459C14.4869 35.6968 14 36.5704 14 37.5625V39.9792C14 41.6442 15.3558 43 17.0208 43H24.9426C25.2773 43 25.5468 42.7293 25.5468 42.3958C25.5468 42.0623 25.2761 41.7916 24.9426 41.7916H17.0208C16.0215 41.7916 15.2083 40.9784 15.2083 39.9791V37.5625C15.2083 36.562 16.0215 35.75 17.0208 35.75H27.1273C27.4608 35.75 27.7315 35.4793 27.7315 35.1458C27.7315 34.8123 27.4608 34.5416 27.1273 34.5416H17.0208C16.0215 34.5416 15.2083 33.7284 15.2083 32.7291V30.3125C15.2083 29.312 16.0215 28.5 17.0208 28.5H39.9791C40.9784 28.5 41.7916 29.3132 41.7916 30.3125V32.7292C41.7916 32.995 41.7264 33.2621 41.6007 33.5194C41.4545 33.8191 41.5778 34.1804 41.8774 34.3278C42.1783 34.4752 42.5396 34.352 42.6858 34.0511C42.8948 33.6258 42.9999 33.1823 42.9999 32.7292V30.3125C42.9999 29.3217 42.513 28.4468 41.7723 27.8958C42.5131 27.3436 43 26.47 43 25.4792ZM19.2417 16.0638C19.5741 15.5285 20.1492 15.2083 20.7799 15.2083H36.2188C36.8496 15.2083 37.4247 15.5285 37.7582 16.0638L40.2511 20.0694C40.1604 20.0598 40.0722 20.0416 39.9792 20.0416H17.0208C16.9278 20.0416 16.8396 20.0598 16.7489 20.0682L19.2417 16.0638ZM41.7917 25.4792C41.7917 26.4785 40.9785 27.2917 39.9792 27.2917H17.0208C16.0215 27.2917 15.2083 26.4785 15.2083 25.4792V23.0625C15.2083 22.062 16.0215 21.25 17.0208 21.25H39.9791C40.9784 21.25 41.7916 22.062 41.7916 23.0625V25.4792H41.7917Z" fill="white"/>
<path d="M16.4167 38.7708C16.4167 39.7701 17.2298 40.5833 18.2292 40.5833C19.2285 40.5833 20.0417 39.7701 20.0417 38.7708C20.0417 37.7714 19.2285 36.9583 18.2292 36.9583C17.2298 36.9583 16.4167 37.7703 16.4167 38.7708ZM18.8333 38.7708C18.8333 39.1043 18.5626 39.3749 18.2291 39.3749C17.8956 39.3749 17.625 39.1043 17.625 38.7708C17.625 38.4373 17.8957 38.1666 18.2292 38.1666C18.5627 38.1666 18.8333 38.4373 18.8333 38.7708Z" fill="white"/>
<path d="M38.7708 34.5417C38.6609 34.5417 38.5509 34.5477 38.4434 34.5574C37.4368 33.0469 35.7464 32.125 33.9375 32.125C31.1245 32.125 28.8033 34.2722 28.5278 37.0139C27.137 37.2822 26.0834 38.5099 26.0834 39.9792C26.0834 41.6442 27.4391 43 29.1042 43H38.7709C41.1029 43 43 41.1029 43 38.7708C43 36.4387 41.1029 34.5417 38.7708 34.5417ZM38.7708 41.7917H29.1042C28.1049 41.7917 27.2917 40.9785 27.2917 39.9792C27.2917 38.9799 28.1049 38.1667 29.1042 38.1667C29.4377 38.1667 29.7084 37.896 29.7084 37.5625C29.7084 35.2304 31.6054 33.3333 33.9376 33.3333C35.448 33.3333 36.8557 34.1659 37.6085 35.5059C37.7342 35.7294 37.9831 35.8478 38.2417 35.8043C38.4145 35.7741 38.5897 35.7499 38.7709 35.7499C40.436 35.7499 41.7917 37.1057 41.7917 38.7708C41.7917 40.4358 40.4359 41.7917 38.7708 41.7917Z" fill="white"/>
<path d="M38.7708 22.4583H29.1042C28.7707 22.4583 28.5 22.7289 28.5 23.0624C28.5 23.3959 28.7707 23.6666 29.1042 23.6666H38.7709C39.1044 23.6666 39.3751 23.3959 39.3751 23.0624C39.3751 22.7289 39.1043 22.4583 38.7708 22.4583Z" fill="white"/>
<path d="M38.7708 24.875H29.1042C28.7707 24.875 28.5 25.1457 28.5 25.4792C28.5 25.8127 28.7707 26.0834 29.1042 26.0834H38.7709C39.1044 26.0834 39.3751 25.8127 39.3751 25.4792C39.3751 25.1457 39.1043 24.875 38.7708 24.875Z" fill="white"/>
<path d="M18.2292 22.4583C17.2298 22.4583 16.4167 23.2703 16.4167 24.2708C16.4167 25.2713 17.2298 26.0833 18.2292 26.0833C19.2285 26.0833 20.0417 25.2701 20.0417 24.2708C20.0417 23.2715 19.2284 22.4583 18.2292 22.4583ZM18.2292 24.8749C17.8957 24.8749 17.625 24.6043 17.625 24.2708C17.625 23.9373 17.8957 23.6666 18.2292 23.6666C18.5627 23.6666 18.8333 23.9373 18.8333 24.2708C18.8333 24.6043 18.5627 24.8749 18.2292 24.8749Z" fill="white"/>
<path d="M16.4167 31.5208C16.4167 32.5201 17.2298 33.3333 18.2292 33.3333C19.2285 33.3333 20.0417 32.5201 20.0417 31.5208C20.0417 30.5214 19.2285 29.7083 18.2292 29.7083C17.2298 29.7083 16.4167 30.5203 16.4167 31.5208ZM18.8333 31.5208C18.8333 31.8543 18.5626 32.1249 18.2291 32.1249C17.8956 32.1249 17.625 31.8543 17.625 31.5208C17.625 31.1873 17.8957 30.9166 18.2292 30.9166C18.5627 30.9166 18.8333 31.1873 18.8333 31.5208Z" fill="white"/>
</svg>
